<svg width="1920" height="981" viewBox="0 0 1920 981" fill="none" xmlns="http://www.w3.org/2000/svg">
<path d="M2036.97 874.636L1778.74 548.968L1676.45 419.952C1653.63 391.195 1627.8 358.615 1592.03 341.934C1527.86 312.048 1447.83 336.939 1347.41 417.954C1327.06 434.374 1306.46 451.315 1286.5 467.692C1232.6 511.957 1176.87 557.699 1119.66 598.967C1055.4 645.23 996.195 680.634 938.681 707.219C858.997 743.969 774.443 764.907 694.063 767.817C650.938 769.381 609.335 765.689 570.384 756.87C528.955 747.488 490.308 732.24 455.487 711.519C429.316 695.925 405.059 677.506 381.366 655.135C360.239 635.196 340.024 612.564 319.549 585.935C281.51 536.501 248.298 480.246 216.172 425.816C179.264 363.35 141.138 298.799 95.0579 243.152C-12.8404 112.746 -171.08 26.5186 -339.187 6.5363C-435.522 -4.93179 -521.945 8.05668 -589.066 44.0682C-669.837 87.3776 -722.83 167.307 -724.134 247.627L-725.699 247.583C-725.047 206.576 -711.179 165.265 -685.618 128.081C-673.576 110.531 -659.143 94.2845 -642.798 79.6888C-626.582 65.2668 -608.759 52.7562 -589.805 42.6347C-554.027 23.4778 -513.033 10.7065 -467.952 4.75527C-427.827 -0.500938 -384.442 -0.457498 -338.97 4.97247C-297.367 9.92459 -255.72 19.0469 -215.204 32.1223C-175.123 45.0673 -135.954 61.8785 -98.7852 82.1648C-61.5729 102.451 -26.2299 126.213 6.37433 152.885C39.3264 179.861 69.5396 209.878 96.2316 242.153C142.356 297.93 180.524 362.525 217.476 425.035C281.554 533.46 347.762 645.621 456.269 710.173C519.608 747.878 595.25 766.688 676.196 766.688C760.314 766.688 850.128 746.402 938.029 705.829C1066.14 646.751 1177.65 555.136 1285.55 466.563C1305.5 450.186 1326.11 433.245 1346.45 416.824C1390.58 381.247 1429.35 357.095 1465 342.977C1487.52 334.072 1509.17 329.12 1529.25 328.294C1551.77 327.339 1573.12 331.465 1592.68 340.588C1628.76 357.399 1654.76 390.152 1677.67 419.04L2038.18 873.723L2036.97 874.636Z" fill="white"/>
<path d="M2041.18 878.328L2027.45 861.517C1908.16 715.429 1784.78 564.389 1658.84 421.082C1630.93 389.327 1599.76 357.877 1560.77 342.76C1493 316.435 1411.36 344.584 1311.11 428.77C1293.46 443.583 1275.55 458.831 1258.25 473.557C1204.82 519.082 1149.57 566.127 1092.62 608.567C1028.71 656.221 969.634 692.71 912.033 720.164C834.826 756.567 752.837 777.548 674.848 780.806C632.941 782.587 592.511 779.199 554.69 770.728C514.435 761.736 476.875 746.923 443.054 726.723C417.318 711.389 393.539 693.188 370.281 671.121C349.545 651.442 329.765 629.114 309.724 602.833C272.512 554.007 240.125 498.535 208.781 444.843C174.873 386.764 139.834 326.731 98.3184 274.299C-11.058 136.204 -171.514 45.0674 -341.882 24.3032C-437.434 12.7483 -522.857 25.563 -588.979 61.227C-668.968 104.493 -720.352 183.814 -719.83 263.352H-721.352C-721.613 222.997 -708.615 182.076 -683.748 145.022C-672.011 127.559 -657.926 111.356 -641.885 96.8041C-625.93 82.3821 -608.367 69.9584 -589.674 59.8804C-554.375 40.8103 -513.859 28.2128 -469.256 22.3485C-429.653 17.2226 -386.746 17.3529 -341.665 22.8263C-299.105 27.9956 -256.459 37.7696 -214.943 51.8006C-174.21 65.571 -134.389 83.5116 -96.5245 105.188C-58.9645 126.691 -23.2737 151.842 9.63489 180.035C42.6738 208.357 72.9305 239.764 99.579 273.43C141.182 325.949 176.264 386.026 210.173 444.148C272.642 551.184 337.286 661.868 443.923 725.507C569.167 800.31 743.969 797.834 911.511 718.861C1039.8 657.741 1150.43 563.564 1257.38 472.427C1274.68 457.701 1292.59 442.454 1310.24 427.598C1354.45 390.457 1393.66 364.871 1430.09 349.406C1452.92 339.719 1474.96 333.942 1495.65 332.204C1518.73 330.293 1540.86 333.333 1561.38 341.326C1600.68 356.574 1632.02 388.198 1660.02 420.082C1786 563.39 1909.37 714.473 2028.66 860.561L2042.4 877.372L2041.18 878.328Z" fill="white"/>
<path d="M2045.4 882.02C1916.9 728.939 1783.96 570.688 1641.24 422.167C1613.63 393.41 1575.94 358.528 1529.51 343.498C1458.39 320.519 1375.1 351.925 1274.85 439.456C1258.51 453.748 1241.9 468.387 1225.86 482.592C1173.56 528.855 1119.48 576.682 1063.58 619.818C1000.8 668.253 942.55 705.307 885.471 733.109C811.133 769.338 731.71 790.406 655.764 794.011C615.074 795.966 575.818 792.795 539.04 784.672C499.915 776.027 463.442 761.649 430.664 742.014C405.45 726.897 382.105 709 359.326 687.237C339.068 667.862 319.679 645.795 300.16 619.905C263.861 571.774 232.343 517.04 201.913 464.13C170.961 410.352 138.921 354.706 101.666 305.575C-8.92786 159.661 -171.558 63.616 -344.578 42.0699C-439.347 30.4715 -523.814 43.0256 -588.848 78.3855C-666.925 120.913 -717.831 201.537 -715.527 279.077L-716.961 279.12C-718.135 239.417 -706.006 198.887 -681.836 161.964C-670.446 144.588 -656.665 128.428 -640.928 113.963C-625.235 99.5841 -607.933 87.2038 -589.544 77.1692C-554.766 58.2295 -514.728 45.7623 -470.56 40.0283C-431.522 34.9893 -389.05 35.2065 -344.447 40.6364C-300.844 46.0664 -257.198 56.405 -214.769 71.3918C-173.384 85.9875 -132.867 105.058 -94.3944 128.081C-56.4866 150.756 -20.4045 177.341 12.7213 207.054C45.8472 236.723 76.1039 269.564 102.709 304.663C140.139 353.967 172.178 409.613 203.173 463.435C263.948 569.037 326.809 678.201 431.446 740.841C553.517 814.081 723.059 810.736 884.863 731.849C1011.98 669.904 1120.22 574.163 1224.95 481.55C1240.99 467.345 1257.55 452.706 1273.94 438.414C1318.32 399.622 1358.01 372.603 1395.18 355.705C1418.31 345.236 1440.79 338.589 1462.04 336.026C1485.69 333.159 1508.56 335.245 1529.99 342.152C1576.77 357.269 1614.59 392.324 1642.32 421.168C1785.09 569.732 1918.03 728.026 2046.57 881.108L2045.4 882.02Z" fill="white"/>
<path d="M2049.62 885.713C1909.46 723.074 1771.39 565.345 1623.63 423.254C1578.94 380.248 1539.08 355.183 1498.21 344.28C1423.92 324.472 1338.97 359.137 1238.55 450.23C1223.34 464.043 1207.9 478.205 1192.95 491.888C1141.83 538.803 1089.01 587.282 1034.19 631.069C972.633 680.199 915.293 717.818 858.866 746.097C787.137 782.066 710.278 803.134 636.636 807.13C597.163 809.259 559.081 806.392 523.39 798.66C485.439 790.406 450.053 776.462 418.274 757.348C393.539 742.492 370.716 724.855 348.501 703.44C328.721 684.326 309.811 662.65 290.814 637.107C255.471 589.671 224.953 535.806 195.435 483.678C167.309 434.027 138.269 382.681 105.013 336.852C-4.84155 185.465 -173.905 81.9042 -347.229 59.8803C-442.564 48.0647 -523.814 60.0541 -588.674 95.5877C-666.142 138.028 -715.353 218.044 -711.223 294.759L-712.571 294.846C-714.701 255.75 -703.398 215.655 -679.923 178.862C-668.881 161.529 -655.404 145.457 -639.928 131.035C-624.496 116.656 -607.498 104.363 -589.327 94.4149C-555.027 75.6489 -515.467 63.2686 -471.734 57.6649C-433.218 52.7562 -391.267 53.0168 -347.055 58.5337C-302.409 64.2243 -257.807 75.1276 -214.378 91.07C-172.253 106.491 -131.129 126.691 -92.0469 151.06C-53.7043 174.952 -17.3616 202.927 16.0687 234.16C49.2815 265.22 79.5817 299.494 106.1 336.027C139.4 381.942 168.482 433.288 196.609 482.983C255.514 587.021 316.462 694.621 418.97 756.176C558.516 840.231 737.361 805.48 858.214 744.881C983.849 681.894 1089.66 584.806 1191.99 490.889C1206.91 477.206 1222.38 463.001 1237.6 449.23C1282.24 408.745 1322.37 380.161 1360.32 361.873C1383.75 350.579 1406.7 343.107 1428.48 339.719C1452.7 335.94 1476.26 337.026 1498.52 342.977C1539.6 353.924 1579.64 379.119 1624.5 422.298C1772.31 564.433 1910.42 722.206 2050.57 884.887L2049.62 885.713Z" fill="white"/>
<path d="M2053.83 889.405C1916.98 734.456 1769.65 570.905 1605.98 424.34C1557.34 380.726 1511.82 354.793 1466.91 345.062C1389.58 328.251 1303.02 366.174 1202.25 461.003C1187.69 474.73 1172.91 488.804 1158.61 502.401C1108.92 549.707 1057.49 598.663 1004.02 642.841C943.941 692.406 887.732 730.416 832.218 759.086C798.701 776.375 763.618 790.363 727.971 800.701C690.802 811.474 653.633 818.034 617.421 820.249C579.165 822.595 542.257 820.032 507.697 812.604C470.876 804.698 436.62 791.275 405.885 772.639C381.714 758.087 359.456 740.711 337.764 719.643C318.462 700.877 300.117 679.505 281.641 654.353C247.341 607.655 217.911 554.659 189.436 503.4C164.092 457.745 137.878 410.569 108.317 368.042C-2.05927 209.052 -173.384 100.497 -349.968 77.6472C-444.52 65.7447 -524.814 77.5603 -588.588 112.747C-665.36 155.1 -712.918 234.551 -706.919 310.441L-708.18 310.528C-711.223 272.083 -700.79 232.38 -678.01 195.716C-656.622 161.269 -625.061 131.382 -589.196 111.574C-555.418 92.938 -516.337 80.688 -473.038 75.2146C-435.043 70.4362 -393.571 70.7837 -349.794 76.3006C-304.105 82.2084 -258.459 93.7634 -214.117 110.575C-171.297 126.821 -129.433 148.106 -89.7864 173.823C-51.0526 198.931 -14.3185 228.253 19.3725 261.05C52.7158 293.499 83.016 329.207 109.404 367.26C138.965 409.831 165.222 457.05 190.567 502.748C247.472 605.136 306.29 711.042 406.537 771.466C541.823 853.35 714.842 818.121 831.653 757.87C955.244 694.1 1058.19 596.1 1157.69 501.358C1172 487.762 1186.78 473.687 1201.34 459.96C1246.25 417.737 1286.85 387.59 1325.54 367.825C1349.32 355.705 1372.71 347.408 1395.05 343.194C1419.83 338.503 1444.09 338.676 1467.17 343.715C1491.61 349.015 1516.6 359.267 1541.51 374.167C1562.73 386.851 1584.11 402.924 1606.85 423.34C1679.62 488.5 1754.74 562.13 1836.56 648.358C1914.29 730.329 1990.49 815.775 2054.79 888.536L2053.83 889.405Z" fill="white"/>
<path d="M2058.05 893.098C1915.24 735.151 1759.53 569.168 1588.37 425.382C1534.77 380.379 1484.82 354.315 1435.61 345.757C1355.32 331.813 1267.11 372.994 1165.91 471.645C1151.57 485.633 1137.05 499.968 1123 513.825C1074.88 561.348 1025.1 610.522 973.111 654.918C914.772 704.786 859.953 743.057 805.569 771.988C773.356 789.103 739.535 803.047 705.061 813.386C669.153 824.159 633.201 830.848 598.206 833.238C561.168 835.801 525.434 833.498 491.96 826.461C456.269 818.946 423.143 805.957 393.408 787.887C369.846 773.595 348.154 756.61 327.113 735.889C308.376 717.427 290.596 696.446 272.729 671.772C239.56 625.9 211.259 573.859 183.915 523.512C161.179 481.723 137.704 438.544 111.621 399.275C1.02728 232.727 -172.514 119.176 -352.707 95.414C-446.433 83.4247 -525.814 95.0665 -588.544 129.905C-663.403 171.607 -710.353 252.318 -702.615 326.209L-703.833 326.34C-707.789 288.547 -698.225 249.278 -676.141 212.701C-655.361 178.34 -624.452 148.584 -589.066 128.906C-555.766 110.401 -517.163 98.281 -474.342 92.938C-436.869 88.2465 -395.875 88.6809 -352.49 94.2412C-305.757 100.41 -259.111 112.529 -213.856 130.253C-170.254 147.324 -127.738 169.696 -87.4824 196.715C-48.3138 223.04 -11.2319 253.752 22.6765 288.026C56.1501 321.865 86.4069 359.093 112.664 398.623C138.747 437.936 162.266 481.159 185.002 522.948C239.734 623.598 296.291 727.679 394.104 786.887C525.086 866.599 692.28 830.892 805.047 770.945C926.118 706.567 1025.8 608.176 1122.18 513C1136.22 499.143 1150.74 484.808 1165.09 470.82C1210.25 426.772 1251.38 395.061 1290.81 373.819C1314.93 360.831 1338.76 351.708 1361.67 346.669C1386.97 341.109 1411.92 340.414 1435.83 344.541C1485.26 353.142 1535.38 379.249 1589.16 424.426C1760.35 568.255 1916.11 734.238 2058.96 892.229L2058.05 893.098Z" fill="white"/>
<path d="M2062.27 896.79C1924.15 747.314 1757.74 574.554 1570.77 426.468C1511.91 379.857 1457.48 353.706 1404.31 346.539C1321.11 335.288 1231.25 379.727 1129.61 482.418C1115.22 496.971 1100.62 511.914 1086.53 526.336C1040.1 573.902 992.065 623.076 941.768 667.558C885.297 717.514 832.044 755.915 778.964 784.976C748.012 801.917 715.494 815.775 682.238 826.157C647.591 836.973 612.9 843.75 579.035 846.356C543.214 849.093 508.653 847.095 476.31 840.405C441.793 833.281 409.754 820.727 381.019 803.177C358.065 789.233 337.025 772.552 316.636 752.266C298.465 734.195 281.293 713.604 264.078 689.365C232.126 644.362 205.086 593.363 178.916 544.016C158.701 505.919 137.835 466.563 114.968 430.508C4.28766 256.054 -171.558 137.42 -355.359 113.181C-447.998 100.974 -526.422 112.355 -588.37 147.064C-662.708 188.722 -707.919 268.825 -698.312 341.847L-699.442 341.978C-701.92 323.081 -700.876 303.577 -696.312 284.073C-691.965 265.48 -684.531 247.149 -674.228 229.556C-654.1 195.282 -623.8 165.612 -588.935 146.108C-556.114 127.69 -517.989 115.744 -475.646 110.487C-438.565 105.883 -398.048 106.448 -355.228 112.095C-307.409 118.394 -259.72 131.034 -213.552 149.627C-169.167 167.48 -125.999 190.938 -85.1348 219.261C-6.31952 273.995 63.1927 346.843 115.925 429.9C138.834 465.998 159.701 505.398 179.916 543.495C232.3 642.233 286.423 744.316 381.627 802.222C508.262 879.675 669.631 843.576 778.399 783.977C896.557 719.208 992.674 620.774 1085.66 525.554C1099.75 511.132 1114.35 496.189 1128.74 481.636C1174.17 435.721 1215.82 402.402 1255.99 379.683C1280.46 365.826 1304.76 355.878 1328.19 350.058C1354.06 343.628 1379.71 342.065 1404.4 345.409C1457.74 352.62 1512.39 378.858 1571.38 425.599C1653.45 490.585 1736.4 563.998 1824.99 650.096C1896.81 719.86 1972.45 798.008 2063.05 896.051L2062.27 896.79Z" fill="white"/>
<path d="M2066.44 900.482C1870.25 692.536 1711.92 546.666 1553.12 427.554C1488.69 379.249 1429.79 352.968 1373.01 347.321C1286.89 338.72 1195.43 386.417 1093.36 493.191C1078.66 508.569 1063.75 524.381 1049.36 539.672C1004.72 587.108 958.548 636.108 910.033 680.504C855.562 730.329 804.004 768.773 752.402 797.965C722.754 814.732 691.454 828.503 659.459 838.885C626.072 849.701 592.598 856.608 559.951 859.388C525.347 862.342 491.96 860.648 460.747 854.306C427.36 847.529 396.408 835.496 368.759 818.468C346.502 804.871 326.113 788.582 306.42 768.73C288.901 751.05 272.381 730.937 255.862 707.176C225.214 663.128 199.478 613.215 174.612 564.997C156.789 530.419 138.356 494.712 118.403 461.785C8.24371 279.859 -169.819 156.186 -357.967 130.991C-449.824 118.698 -527.248 129.905 -588.153 164.309C-660.752 205.273 -705.224 286.592 -693.921 357.616L-694.964 357.79C-697.92 339.241 -697.312 319.997 -693.182 300.667C-689.226 282.248 -682.183 264.047 -672.228 246.541C-652.753 212.354 -623.061 182.815 -588.674 163.397C-556.331 145.152 -518.684 133.293 -476.777 128.168C-440.217 123.693 -400.179 124.301 -357.793 129.992C-308.887 136.551 -260.198 149.714 -213.074 169.175C-167.906 187.854 -123.999 212.31 -82.5699 241.98C-2.75476 299.103 67.0618 374.949 119.315 461.263C139.269 494.234 157.701 529.985 175.525 564.563C225.388 661.216 276.903 761.171 369.281 817.643C418.231 847.747 472.571 859.953 526.781 859.953C607.988 859.953 689.063 832.586 751.881 797.052C866.778 732.067 959.2 633.893 1048.58 538.977C1062.97 523.686 1077.84 507.874 1092.57 492.496C1138.26 444.713 1180.39 409.7 1221.29 385.504C1246.16 370.822 1270.9 360.005 1294.85 353.402C1321.28 346.105 1347.63 343.715 1373.1 346.278C1430.05 351.969 1489.17 378.293 1553.73 426.729C1640.41 491.758 1727.27 565.128 1819.17 651.051C1895.42 722.336 1976.54 803.655 2067.18 899.787L2066.44 900.482Z" fill="white"/>
<path d="M2070.66 904.175C1874.12 699.921 1704.05 548.838 1535.47 428.64C1465.17 378.511 1401.79 352.186 1341.67 348.059C1252.64 341.978 1159.52 392.976 1057.01 503.921C1041.84 520.341 1026.5 537.283 1011.67 553.616C968.895 600.748 924.64 649.531 877.994 693.753C825.61 743.361 775.834 781.718 725.797 810.953C697.41 827.547 667.371 841.231 636.592 851.613C604.466 862.473 572.21 869.466 540.736 872.464C507.349 875.635 475.136 874.245 445.053 868.293C412.84 861.908 382.975 850.353 356.326 833.846C334.808 820.597 315.115 804.741 296.204 785.367C279.38 768.121 263.513 748.443 247.776 725.29C218.519 682.285 194.218 633.589 170.7 586.543C155.093 555.31 138.965 523.035 121.706 493.105C12.5039 303.751 -167.819 175.082 -360.662 148.888C-451.693 136.508 -528.205 147.542 -588.022 181.598C-660.056 222.605 -702.789 303.273 -689.617 373.428L-690.574 373.602C-694.008 355.401 -693.834 336.418 -690.139 317.261C-686.618 299.016 -679.923 280.945 -670.315 263.526C-651.492 229.426 -622.409 200.017 -588.501 180.73C-556.635 162.615 -519.467 150.887 -478.037 145.891C-441.999 141.547 -402.439 142.242 -360.488 147.933C-310.452 154.709 -260.719 168.48 -212.683 188.766C-166.645 208.227 -122.043 233.769 -80.0486 264.655C0.89679 324.254 70.9741 403.098 122.619 492.627C139.878 522.557 156.006 554.876 171.612 586.109C218.78 680.504 267.513 778.113 356.892 833.02C474.788 905.999 624.507 869.032 725.363 810.128C836.782 745.012 925.379 647.402 1011.02 553.008C1025.84 536.675 1041.19 519.733 1056.4 503.313C1102.35 453.574 1144.96 416.911 1186.6 391.238C1211.82 375.687 1237.08 364.045 1261.55 356.704C1288.59 348.581 1315.59 345.366 1341.84 347.147C1374.53 349.363 1408.79 358.355 1443.61 373.776C1473.17 386.895 1503.43 404.574 1536.12 427.902C1704.75 548.143 1874.86 699.27 2071.44 903.567L2070.66 904.175Z" fill="white"/>
<path d="M2074.87 907.867C1878.12 707.175 1695.93 550.793 1517.86 429.726C1440.4 377.034 1374.45 351.317 1310.37 348.798C1218.38 345.192 1123.61 399.449 1020.71 514.651C1004.93 532.287 989.066 550.488 973.676 568.082C932.769 614.866 890.514 663.258 845.738 707.175C795.484 756.48 747.534 794.663 699.149 823.898C672.022 840.275 643.244 853.871 613.682 864.297C582.817 875.157 551.821 882.281 521.478 885.495C489.308 888.884 458.269 887.754 429.316 882.194C398.277 876.199 369.498 865.079 343.893 849.136C323.157 836.322 304.247 820.901 286.119 802.048C269.99 785.28 254.906 766.123 239.951 743.578C212.216 701.702 189.393 654.353 167.352 608.567C153.832 580.462 139.834 551.401 125.01 524.381C17.2424 327.686 -165.341 193.979 -363.401 166.699C-453.606 154.275 -529.161 165.048 -587.979 198.801C-659.491 239.808 -700.485 319.91 -685.4 389.197L-686.27 389.371C-690.139 371.517 -690.443 352.794 -687.183 333.811C-684.053 315.784 -677.749 297.843 -668.49 280.467C-650.318 246.454 -621.887 217.175 -588.457 198.019C-557.114 180.035 -520.423 168.436 -479.429 163.571C-443.912 159.357 -404.83 160.096 -363.314 165.83C-312.147 172.867 -261.372 187.159 -212.422 208.314C-165.515 228.557 -120.13 255.142 -77.5707 287.287C4.63544 349.406 74.9736 431.246 125.793 523.99C140.617 551.053 154.615 580.114 168.178 608.22C212.433 700.138 258.209 795.184 344.371 848.441C457.965 919.205 606.205 879.11 698.671 823.246C806.482 758.13 891.123 661.303 972.981 567.647C988.37 550.054 1004.24 531.896 1020.02 514.216C1066.19 462.566 1109.22 424.209 1151.7 396.973C1177.3 380.552 1202.99 368.085 1228.03 359.962C1255.64 351.013 1283.33 347.017 1310.41 348.059C1345.58 349.449 1381.1 357.833 1419.05 373.732C1450.39 386.851 1482.87 404.965 1518.38 429.118C1614.37 494.408 1708.92 567.734 1807.43 653.354C1894.03 728.591 1981.71 811.691 2075.57 907.433L2074.87 907.867Z" fill="white"/>
<path d="M2079.09 911.559C1879.42 711.52 1690.06 554.224 1500.21 430.769C1432.18 386.547 1358.32 346.061 1279.07 349.58C1180.6 353.924 1081.44 413.089 984.414 525.424C968.025 544.407 951.549 563.998 935.595 582.938C896.6 629.288 856.258 677.202 813.438 720.772C765.357 769.685 719.277 807.652 672.544 836.843C646.678 853.003 619.16 866.512 590.816 876.938C561.211 887.841 531.433 895.052 502.306 898.441C471.354 902.046 441.532 901.221 413.666 896.051C383.757 890.491 356.153 879.805 331.547 864.384C248.646 812.777 205.999 720.425 164.701 631.113C153.05 605.918 141.052 579.897 128.401 555.571C24.1111 354.619 -165.341 212.397 -366.096 184.379C-455.519 171.868 -530.117 182.467 -587.848 215.872C-657.708 256.271 -697.79 337.504 -681.053 404.792L-681.879 405.009C-686.226 387.503 -687.009 369.041 -684.096 350.231C-681.357 332.378 -675.489 314.567 -666.533 297.322C-649.014 263.439 -621.192 234.247 -588.24 215.177C-557.374 197.324 -521.162 185.855 -480.646 181.121C-445.651 177.037 -407.091 177.863 -365.966 183.597C-313.669 190.895 -261.85 205.751 -211.9 227.688C-164.037 248.756 -117.913 276.297 -74.7884 309.659C8.80884 374.34 79.3209 459.222 129.14 555.18C141.791 579.55 153.832 605.57 165.44 630.765C206.651 719.99 249.298 812.213 331.982 863.689C441.097 932.15 583.426 891.664 672.153 836.191C776.225 771.119 856.953 675.204 934.986 582.46C950.94 563.52 967.416 543.929 983.805 524.946C1081.01 412.394 1180.39 353.142 1279.07 348.798C1315.41 347.191 1353.15 354.706 1394.49 371.777C1434.53 388.285 1472.26 411.655 1500.69 430.117C1690.58 553.616 1879.99 710.911 2079.7 910.995L2079.09 911.559Z" fill="white"/>
<path d="M2083.26 915.252C1880.68 715.733 1684.19 557.613 1482.56 431.855C1409.96 386.547 1331.24 345.323 1247.73 350.318C1146.87 356.356 1046.06 418.866 948.071 536.153C931.03 556.57 913.946 577.638 897.426 598.055C860.301 643.884 821.915 691.32 781.007 734.456C735.101 782.891 690.889 820.64 645.852 849.788C621.203 865.73 594.989 879.11 567.819 889.535C539.432 900.439 510.914 907.78 482.961 911.386C453.226 915.208 424.578 914.73 397.842 909.909C369.107 904.739 342.589 894.531 318.984 879.631C239.777 829.98 200.435 740.668 162.396 654.309C152.485 631.808 142.269 608.567 131.575 586.761C30.1537 379.249 -161.603 231.902 -368.792 202.145C-457.649 189.722 -531.291 200.104 -587.718 233.031C-657.1 273.473 -695.399 354.097 -676.749 420.517L-677.488 420.734C-682.314 403.532 -683.531 385.374 -681.053 366.738C-678.749 349.058 -673.228 331.378 -664.621 314.22C-647.753 280.424 -620.583 251.363 -588.066 232.423C-531.508 199.452 -457.649 189.027 -368.618 201.45C-315.147 209.139 -262.284 224.56 -211.378 247.323C-162.516 269.173 -115.565 297.756 -71.9193 332.247C13.2865 399.535 83.9725 487.457 132.444 586.5C143.138 608.35 153.398 631.59 163.266 654.092C201.261 740.363 240.56 829.545 319.549 879.066C424.143 945.182 560.516 904.305 645.548 849.223C745.795 784.238 822.61 689.365 896.904 597.621C913.424 577.204 930.509 556.136 947.55 535.719C991.761 482.766 1037.06 440.542 1082.1 410.135C1108.27 392.455 1134.92 378.467 1161.3 368.476C1189.95 357.66 1219.03 351.274 1247.77 349.58C1286.07 347.277 1326.06 354.532 1369.97 371.777C1412.4 388.415 1452.7 412.263 1483.04 431.203C1586.98 496.015 1692.14 571.47 1795.61 655.526C1890.77 732.805 1987.75 820.032 2083.92 914.73L2083.26 915.252Z" fill="white"/>
<path d="M423.795 927.285C409.493 927.285 395.625 926.112 382.236 923.809C354.674 919.031 329.243 909.301 306.681 894.965C231.43 847.399 195.609 761.432 160.962 678.288C152.615 658.262 143.964 637.542 135.052 618.037C36.5876 403.532 -157.473 251.015 -371.487 219.956C-459.475 207.445 -532.204 217.653 -587.588 250.19C-656.535 290.719 -693.008 370.691 -672.446 436.199L-673.098 436.416C-678.401 419.561 -680.053 401.664 -678.01 383.202C-676.097 365.696 -670.968 348.19 -662.751 331.074C-654.752 314.437 -644.189 298.929 -631.364 284.941C-618.453 270.867 -603.846 258.965 -587.935 249.625C-532.421 216.958 -459.518 206.75 -371.356 219.261C-316.712 227.21 -262.719 243.152 -210.857 266.653C-160.951 289.285 -113.174 318.868 -68.8762 354.532C18.0684 424.557 88.7979 515.563 135.705 617.733C144.66 637.238 153.311 657.958 161.657 677.984C196.261 761.041 232.039 846.878 307.116 894.357C407.189 958.127 537.649 916.903 618.986 862.212C715.408 797.356 788.398 703.613 858.953 612.955C875.994 591.018 893.644 568.342 911.337 546.492C957.853 488.934 1002.28 445.408 1047.14 413.48C1073.88 394.453 1101.01 379.51 1127.79 369.128C1157.17 357.703 1186.99 351.404 1216.47 350.362C1257.42 348.928 1299.59 356.356 1345.5 373.037C1382.06 386.33 1420.14 405.139 1465.39 432.289C1574.03 497.405 1683.14 572.903 1789.69 656.699C1889.59 735.281 1990.02 823.333 2088.09 918.423L2087.61 918.901C1885.03 722.553 1675.54 559.003 1465.04 432.897C1398.62 393.063 1310.28 347.799 1216.51 351.057C1115.18 354.575 1015.54 418.649 911.902 546.883C894.253 568.733 876.603 591.409 859.518 613.346C824.262 658.653 787.789 705.481 748.794 748.226C705.018 796.184 662.676 833.629 619.421 862.777C571.384 895.096 516.174 916.946 463.964 924.374C450.226 926.329 436.837 927.285 423.795 927.285Z" fill="white"/>
<path d="M403.407 940.62C390.756 940.62 378.41 939.621 366.542 937.667C340.155 933.279 315.81 924.07 294.291 910.213C223.258 864.862 191.088 782.5 159.962 702.875C153.006 685.065 145.79 666.646 138.356 649.227C45.2386 431.246 -155.951 269.738 -374.182 237.679C-461.388 225.125 -533.16 235.073 -587.501 267.348C-646.58 302.404 -692.878 380.987 -668.142 451.924L-668.707 452.141C-674.445 435.634 -676.575 417.997 -674.967 399.709C-673.445 382.42 -668.707 365.001 -660.838 347.972C-653.187 331.422 -642.971 315.957 -630.408 302.013C-617.801 287.982 -603.455 276.123 -587.805 266.871C-533.334 234.551 -461.431 224.56 -374.095 237.114C-264.11 253.274 -157.473 301.535 -65.6592 376.773C-21.5784 412.871 18.3292 454.574 52.9767 500.663C87.6675 546.796 116.577 596.708 138.921 649.01C146.355 666.429 153.572 684.848 160.527 702.658C191.61 782.196 223.736 864.427 294.596 909.691C390.104 971.115 514.652 929.5 592.294 875.2C684.89 810.432 754.098 717.862 821.002 628.376C838.564 604.875 856.693 580.636 874.951 557.265C921.466 497.753 966.33 452.488 1012.06 418.953C1039.19 399.058 1066.79 383.332 1094.14 372.168C1124.13 359.962 1154.7 352.881 1185 351.187C1227.82 348.798 1272.2 355.879 1320.8 372.863C1358.71 386.156 1399.01 405.356 1447.57 433.375C1560.94 498.795 1674.02 574.337 1783.61 657.915C1888.25 737.714 1992.02 826.591 2092.09 922.072L2091.65 922.506C1886.2 726.463 1669.41 562.043 1447.26 433.853C1375.88 392.672 1291.42 351.274 1201.25 351.274C1195.86 351.274 1190.47 351.404 1185.04 351.708C1080.4 357.573 979.11 424.904 875.429 557.526C857.171 580.896 839.043 605.179 821.48 628.636C788.05 673.379 753.489 719.643 716.364 761.91C674.717 809.346 634.245 846.53 592.642 875.635C547.039 907.52 494.438 929.413 444.532 937.232C430.533 939.535 416.796 940.62 403.407 940.62Z" fill="white"/>
<path d="M383.149 954C372.063 954 361.282 953.175 350.805 951.524C325.548 947.571 302.377 938.796 281.858 925.504C215.259 882.498 186.915 804.089 159.484 728.287C153.745 712.432 147.833 696.055 141.704 680.504C53.2375 455.92 -150.3 289.112 -376.877 255.489C-463.213 242.848 -534.03 252.622 -587.37 284.55C-646.058 319.693 -690.704 397.798 -663.838 467.649L-664.36 467.823C-676.402 436.459 -674.489 399.883 -658.926 364.827C-651.622 348.363 -641.711 332.986 -629.451 319.042C-617.105 305.011 -603.064 293.238 -587.631 284.029C-534.204 252.101 -463.257 242.327 -376.79 254.968C-264.023 271.692 -155.212 321.474 -62.0944 398.971C-17.1876 436.329 23.1113 479.378 57.6718 526.857C92.493 574.728 120.924 626.334 142.182 680.286C148.311 695.838 154.224 712.258 159.962 728.113C187.35 803.829 215.694 882.151 282.119 925.069C373.02 984.104 491.699 942.141 565.646 888.276C654.46 823.594 719.929 732.284 783.268 643.927C801.222 618.863 819.828 592.973 838.608 568.082C885.21 506.571 930.465 459.569 977.111 424.383C1004.63 403.619 1032.76 387.068 1060.66 375.209C1091.27 362.221 1122.57 354.402 1153.7 352.056C1198.34 348.667 1244.99 355.444 1296.24 372.733C1335.93 386.156 1377.19 405.226 1429.92 434.548C1663.76 564.693 1887.94 730.025 2096.26 925.894L2095.87 926.285C1887.59 730.459 1663.45 565.171 1429.61 435.026C1348.8 390.022 1252.77 345.062 1153.7 352.577C1045.62 360.787 942.724 431.377 839.086 568.429C820.263 593.277 801.7 619.21 783.746 644.275C752.098 688.41 719.364 734.065 684.064 775.897C644.461 822.812 605.857 859.736 565.993 888.754C522.782 920.204 472.789 942.097 425.23 950.308C410.884 952.784 396.799 954 383.149 954Z" fill="white"/>
<path d="M363.021 967.423C353.457 967.423 344.154 966.771 335.112 965.425C311.072 961.863 288.988 953.609 269.512 940.838C207.608 900.352 183.176 826.244 159.571 754.525C154.919 740.363 150.094 725.724 145.094 711.78C63.5839 484.33 -147.213 308.138 -379.486 273.343C-464.996 260.615 -534.856 270.172 -587.196 301.796C-644.276 336.287 -688.139 415.521 -659.491 483.461L-659.926 483.635C-672.88 452.966 -671.837 416.781 -656.969 381.855C-643.015 348.972 -617.671 319.65 -587.457 301.405C-559.07 284.246 -525.292 273.473 -486.993 269.347C-454.736 265.871 -418.524 267.044 -379.442 272.865C-321.146 281.597 -263.632 299.059 -208.553 324.732C-154.951 349.71 -104.35 382.116 -58.1385 421.082C-12.2752 459.743 28.4583 504.138 62.8448 553.008C97.7531 602.616 125.575 655.96 145.529 711.606C150.529 725.551 155.354 740.19 160.005 754.351C183.611 825.983 207.999 900.004 269.773 940.403C350.545 993.4 463.268 958.952 539.171 901.264C624.203 836.669 686.107 746.575 745.969 659.392C764.27 632.763 783.224 605.179 802.483 578.811C823.914 549.533 845.694 522.774 867.213 499.36C891.818 472.601 917.032 449.144 942.116 429.726C970.025 408.093 998.63 390.717 1027.15 378.12C1058.36 364.306 1090.4 355.792 1122.4 352.794C1168.87 348.407 1217.73 354.836 1271.72 372.473C1324.11 389.588 1374.36 415.174 1412.27 435.59C1657.8 567.647 1889.33 733.804 2100.43 929.543L2100.13 929.891C1889.03 734.195 1657.54 568.038 1412.05 436.025C1321.59 387.372 1223.9 343.672 1122.44 353.272C1010.8 363.785 906.294 437.676 802.874 579.115C783.572 605.483 764.662 633.024 746.36 659.696C716.451 703.266 685.499 748.313 652.025 789.624C614.465 836.018 577.644 872.637 539.475 901.655C498.655 932.671 451.27 954.521 406.059 963.166C391.322 965.989 376.932 967.423 363.021 967.423Z" fill="white"/>
<path d="M343.067 980.846C334.982 980.846 327.07 980.324 319.375 979.282C296.509 976.154 275.555 968.378 257.079 956.085C200.13 918.292 179.742 848.745 160.005 781.544C156.267 768.773 152.398 755.611 148.355 743.013C73.626 509.394 -139.606 327.773 -382.268 291.11C-466.909 278.295 -535.856 287.678 -587.153 318.955C-643.928 353.576 -686.096 432.289 -655.231 499.186L-655.578 499.36C-669.446 469.343 -669.272 433.636 -655.1 398.753C-641.798 366 -617.105 336.808 -587.327 318.651C-559.418 301.622 -526.118 290.98 -488.297 286.983C-456.562 283.638 -420.828 284.898 -382.181 290.719C-322.624 299.711 -263.849 317.652 -207.509 344.019C-152.473 369.779 -100.741 403.141 -53.8347 443.105C-6.88464 483.07 34.2402 528.812 68.4094 579.028C103.405 630.417 130.444 685.542 148.79 742.883C152.833 755.48 156.702 768.686 160.44 781.414C180.133 848.572 200.522 918.032 257.34 955.737C333.764 1006.48 440.619 971.506 512.566 914.296C593.816 849.745 652.242 760.867 708.756 674.943C727.319 646.707 746.49 617.516 766.227 589.628C787.615 559.394 809.482 531.722 831.261 507.396C856.041 479.725 881.515 455.399 907.034 435.156C935.334 412.654 964.46 394.496 993.587 381.16C1025.41 366.565 1058.23 357.312 1091.05 353.663C1139.35 348.277 1190.39 354.402 1247.12 372.342C1300.5 389.24 1351.62 414.392 1394.58 436.763C1651.76 570.601 1890.68 737.67 2104.61 933.323L2104.35 933.627C1890.42 738.018 1651.58 570.949 1394.4 437.111C1298.33 387.112 1195.04 342.412 1091.1 354.054C977.415 366.738 868.213 446.103 766.531 589.888C746.838 617.733 727.623 646.925 709.061 675.16C680.804 718.122 651.59 762.561 619.899 803.394C584.295 849.223 549.3 885.626 512.827 914.6C474.354 945.182 429.577 966.988 386.757 976.067C371.716 979.282 357.109 980.846 343.067 980.846Z" fill="white"/>
<path d="M310.333 964.86C282.032 964.86 256.253 957.997 234.082 944.356C180.046 911.342 159.44 848.398 139.487 787.582C135.487 775.376 131.357 762.778 127.053 750.702C121.793 736.019 115.794 721.25 109.186 706.785C70.5829 621.99 11.5041 543.147 -61.7033 478.726C-157.821 394.149 -272.283 339.111 -392.658 319.519C-474.255 306.227 -540.942 313.916 -590.892 342.369C-645.58 373.515 -687.878 445.668 -660.838 507.874L-661.491 508.135C-673.576 480.377 -672.315 447.406 -657.926 415.304C-644.362 384.983 -620.018 358.137 -591.239 341.761C-564.069 326.296 -531.769 316.87 -495.209 313.699C-464.431 311.049 -429.914 312.786 -392.571 318.868C-332.231 328.685 -272.805 347.668 -215.9 375.253C-160.255 402.229 -108.262 436.894 -61.2686 478.205C11.9822 542.669 71.1481 621.599 109.795 706.48C116.403 720.946 122.402 735.759 127.662 750.441C131.966 762.518 136.096 775.115 140.095 787.322C160.005 848.051 180.568 910.821 234.387 943.748C269.512 965.338 313.984 969.899 362.934 956.824C401.842 946.355 442.445 924.939 477.179 896.486C554.082 833.542 610.378 748.356 664.806 665.995C683.455 637.759 702.757 608.567 722.58 580.723C765.488 520.472 811.655 470.82 859.779 433.158C916.51 388.762 976.241 360.874 1037.41 350.231C1066.62 345.149 1101.01 340.761 1134.7 346.756C1165.82 352.316 1194.17 364.566 1220.56 376.643C1258.25 393.975 1297.11 413.827 1334.71 433.027L1337.06 434.2C1354.58 443.149 1373.71 451.272 1390.97 457.137C1419.48 466.78 1444.96 477.857 1469.57 488.587C1474.17 490.585 1478.78 492.583 1483.39 494.582C1520.51 510.611 1558.81 528.334 1607.55 552.052C1654.06 574.684 1693.53 594.319 1734.96 616.691C1803.52 653.658 1869.9 696.967 1926.85 741.971C1983.62 786.801 2041.18 840.275 2098.04 900.873L2097.52 901.351C2040.7 840.796 1983.15 787.322 1926.42 742.535C1869.51 697.575 1803.17 654.266 1734.62 617.342C1693.14 594.971 1653.71 575.336 1607.2 552.747C1558.47 529.073 1520.17 511.349 1483.04 495.32C1478.43 493.322 1473.87 491.324 1469.22 489.325C1444.61 478.596 1419.18 467.519 1390.66 457.875C1373.36 452.011 1354.19 443.887 1336.63 434.895L1334.28 433.723C1296.68 414.522 1257.81 394.67 1220.16 377.338C1193.86 365.262 1165.56 353.012 1134.48 347.495C1100.88 341.5 1066.58 345.887 1037.41 350.97C923.466 370.778 817.698 448.231 723.015 581.2C703.192 609.045 683.89 638.237 665.24 666.473C638.027 707.653 609.857 750.268 579.47 789.581C545.387 833.672 512.001 868.858 477.484 897.137C442.662 925.677 401.972 947.137 362.978 957.606C344.85 962.427 327.156 964.86 310.333 964.86Z" fill="white"/>
<path d="M277.642 949.091C253.254 949.091 230.778 943.574 211.129 932.628C188.176 919.813 169.309 900.265 153.485 872.855C139.4 848.441 129.01 820.292 118.924 793.012C114.707 781.588 110.317 769.772 105.752 758.391C100.318 744.968 94.145 731.415 87.4067 718.079C47.2818 638.41 -11.3623 563.955 -82.1352 502.835C-175.862 421.863 -286.846 368.302 -403.048 347.972C-481.602 334.245 -546.072 340.24 -594.587 365.826C-622.235 380.422 -646.014 404.661 -659.795 432.376C-674.228 461.437 -676.575 491.367 -666.403 516.649L-667.316 516.996C-677.619 491.454 -675.271 461.22 -660.665 431.941C-646.797 404.053 -622.844 379.64 -595.021 364.957C-568.59 351.057 -537.29 342.803 -501.991 340.457C-472.212 338.503 -438.869 340.718 -402.83 347.017C-344.534 357.225 -286.977 375.991 -231.854 402.793C-177.948 429.031 -127.346 462.436 -81.4396 502.053C-46.2271 532.461 -13.7533 566.518 15.1558 603.224C43.891 639.757 68.4963 678.201 88.3197 717.601C95.1014 730.937 101.274 744.534 106.708 758C111.273 769.381 115.664 781.197 119.881 792.621C140.008 847.051 160.788 903.349 211.651 931.715C245.342 950.481 287.466 953.131 333.417 939.317C370.238 928.284 408.754 906.737 441.967 878.632C514.479 817.382 568.602 735.976 620.899 657.22C639.722 628.941 659.154 599.662 679.152 571.774C740.317 486.545 842.825 378.293 983.98 346.756C1016.8 339.415 1057.62 330.292 1096.49 338.285C1131.57 345.496 1162.35 363.133 1192.17 380.118L1193.17 380.683C1235.6 405.052 1279.46 430.247 1324.32 454.096C1345.28 465.216 1368.36 473.774 1387.58 477.51C1414.49 482.766 1436.7 489.238 1458.22 495.537C1464.96 497.492 1471.3 499.36 1477.74 501.184C1518.08 512.522 1556.55 524.989 1592.5 536.848C1596.03 538.021 1599.55 539.151 1603.07 540.324C1639.11 552.139 1676.41 564.389 1717.71 580.766C1789 608.958 1861.21 650.313 1921.03 697.228C1979.63 743.144 2037.05 800.745 2091.74 868.467L2090.96 869.075C2036.31 801.44 1978.93 743.882 1920.42 698.01C1860.69 651.182 1788.52 609.87 1717.31 581.722C1676.02 565.345 1638.76 553.138 1602.72 541.323C1599.16 540.15 1595.63 539.02 1592.16 537.847C1556.21 526.032 1517.73 513.521 1477.39 502.227C1470.96 500.446 1464.61 498.578 1457.87 496.58C1436.4 490.281 1414.14 483.765 1387.32 478.552C1367.97 474.773 1344.8 466.215 1323.76 455.051C1278.85 431.203 1234.99 406.008 1192.56 381.638L1191.56 381.074C1161.82 364.089 1131.09 346.539 1096.18 339.328C1057.58 331.378 1016.84 340.501 984.11 347.799C843.26 379.292 740.926 487.327 679.891 572.425C659.894 600.314 640.461 629.549 621.638 657.871C595.468 697.271 568.384 737.974 539.345 775.723C506.741 818.034 475.093 852.003 442.489 879.501C409.189 907.65 370.498 929.283 333.59 940.36C314.202 946.181 295.422 949.091 277.642 949.091Z" fill="white"/>
<path d="M244.863 933.54C224.258 933.54 205.173 929.326 188.176 920.899C166.396 910.126 148.311 893.184 132.835 869.119C119.055 847.66 108.491 822.508 98.2748 798.182C93.8406 787.626 89.2326 776.679 84.4072 766.123C78.8427 753.96 72.4957 741.58 65.5837 729.373C24.2415 655.656 -35.4894 583.763 -102.611 526.901C-193.989 449.491 -301.496 397.45 -413.481 376.425C-488.992 362.221 -551.201 366.565 -598.369 389.284C-624.974 402.142 -648.275 423.949 -662.36 449.187C-676.967 475.381 -680.401 502.444 -672.011 525.424L-673.228 525.858C-681.749 502.531 -678.271 475.077 -663.49 448.535C-649.318 423.08 -625.756 401.056 -598.89 388.111C-573.198 375.73 -542.942 368.693 -508.903 367.216C-480.124 365.957 -447.955 368.606 -413.22 375.166C-356.924 385.722 -301.323 404.314 -247.939 430.378C-195.728 455.833 -146.561 488.022 -101.741 525.945C-67.7025 554.789 -35.7068 587.195 -6.75427 622.251C21.5462 656.481 46.2819 692.319 66.7139 728.765C73.626 740.972 79.973 753.395 85.5809 765.602C90.4064 776.201 95.0144 787.105 99.4486 797.704C120.663 848.224 140.66 895.921 188.697 919.769C220.823 935.712 260.6 936.45 303.725 921.898C338.503 910.169 375.02 888.536 406.58 860.909C474.658 801.483 526.521 723.856 576.644 648.836C595.641 620.383 615.291 590.974 635.593 562.956C674.457 509.177 718.19 463.435 765.488 426.902C817.568 386.721 873.082 358.615 930.378 343.455L934.117 342.456C974.676 331.683 1016.58 320.562 1058.06 329.988C1095.96 338.589 1127.92 359.918 1158.87 380.596C1160.74 381.855 1162.65 383.115 1164.52 384.375C1216.77 419.301 1264.81 448.709 1311.37 474.165C1327.32 482.896 1345.06 487.501 1362.19 491.975C1369.97 494.017 1377.27 495.885 1384.14 498.144C1408.14 505.919 1429.35 506.397 1448.09 506.832C1456.44 507.005 1464.3 507.222 1471.91 508.004C1506.82 511.653 1539.29 516.171 1577.33 521.818C1580.07 522.209 1582.81 522.644 1585.55 523.035C1619.07 527.987 1657.02 533.634 1700.36 545.015C1773.52 564.128 1851.82 603.355 1915.2 652.659C1976.41 700.312 2033.71 762.04 2085.44 836.235L2084.39 836.973C2032.71 762.909 1975.54 701.224 1914.42 653.658C1851.16 604.441 1773.05 565.301 1700.06 546.275C1656.76 534.937 1618.85 529.29 1585.38 524.338C1582.59 523.947 1579.85 523.512 1577.16 523.121C1539.16 517.431 1506.69 512.913 1471.83 509.308C1464.26 508.526 1456.44 508.352 1448.13 508.178C1429.35 507.744 1408.01 507.266 1383.84 499.403C1377.01 497.188 1369.71 495.277 1361.97 493.278C1344.76 488.804 1326.98 484.156 1310.89 475.338C1264.29 449.839 1216.21 420.43 1163.91 385.461C1162.04 384.201 1160.13 382.941 1158.26 381.682C1127.44 361.091 1095.53 339.806 1057.88 331.248C1016.76 321.909 974.981 332.986 934.552 343.715L930.813 344.714C792.093 381.464 694.324 484.113 636.723 563.738C616.465 591.756 596.815 621.165 577.818 649.574C552.734 687.106 526.781 725.941 499.133 762.04C468.094 802.526 438.141 835.192 407.537 861.908C375.846 889.622 339.155 911.386 304.247 923.158C283.467 930.065 263.557 933.54 244.863 933.54Z" fill="white"/>
<path d="M212.042 918.336C195.262 918.336 179.525 915.295 165.266 909.214C144.356 900.265 127.488 886.277 112.143 865.209C98.6227 846.617 88.4067 825.418 77.5821 802.96C72.974 793.403 68.1921 783.499 63.1927 773.899C57.5848 763.213 51.2379 752.353 43.8911 740.754C-0.233337 671.077 -59.4861 603.745 -122.956 551.053C-211.943 477.206 -315.973 426.685 -423.784 404.922C-496.252 390.283 -556.244 392.933 -602.02 412.785C-656.361 436.372 -690.921 492.019 -677.532 534.242L-679.053 534.72C-685.748 513.608 -681.184 488.934 -666.186 465.173C-651.666 442.193 -628.539 422.558 -602.673 411.308C-577.719 400.491 -548.463 394.67 -515.684 394.019C-487.906 393.454 -456.866 396.581 -423.48 403.358C-369.226 414.305 -315.538 432.68 -263.893 457.962C-213.422 482.679 -165.645 513.565 -121.956 549.837C-58.3558 602.573 0.983826 670.078 45.2386 739.886C52.629 751.527 58.9324 762.431 64.5839 773.16C69.6266 782.804 74.4086 792.708 79.0167 802.265C100.362 846.53 120.576 888.362 165.874 907.737C196.392 920.812 233.822 919.639 274.12 904.392C306.855 892.011 341.372 870.248 371.324 843.098C434.924 785.541 484.396 711.867 532.302 640.626C551.604 611.912 571.514 582.243 592.12 554.007C629.376 502.922 671.848 458.874 718.277 423.08C768.183 384.592 821.567 356.66 876.907 340.023C879.429 339.284 881.95 338.503 884.515 337.721C928.726 324.341 974.459 310.484 1019.8 321.518C1061.19 331.596 1095.01 356.964 1127.74 381.508C1130.7 383.723 1133.61 385.939 1136.57 388.111C1190.04 428.162 1244.55 463.783 1298.59 494.017C1319.06 505.441 1342.84 510.437 1363.88 514.824C1369.75 516.041 1375.32 517.214 1380.71 518.473C1407.66 524.816 1429.05 520.906 1447.92 517.431C1454.26 516.258 1460.26 515.172 1466.04 514.564C1502 510.741 1530.69 508.352 1562.07 506.571C1595.98 504.616 1634.37 502.401 1682.97 509.003C1718.4 513.782 1757.53 524.989 1796 541.496C1836.38 558.785 1875.6 581.722 1909.33 607.785C1942.85 633.719 1974.93 664.605 2004.71 699.66C2031.4 731.111 2056.48 766.123 2079.13 803.742L2077.79 804.567C2029.4 724.334 1972.37 658.523 1908.37 609.045C1841.51 557.395 1757.18 520.558 1682.75 510.567C1634.33 503.964 1595.98 506.18 1562.16 508.135C1530.82 509.916 1502.13 512.305 1466.22 516.128C1460.48 516.736 1454.52 517.822 1448.22 518.995C1429.18 522.47 1407.62 526.423 1380.36 519.994C1375.01 518.734 1369.45 517.561 1363.58 516.345C1342.45 511.914 1318.5 506.918 1297.85 495.363C1243.73 465.086 1189.17 429.422 1135.65 389.371C1132.7 387.199 1129.79 384.983 1126.83 382.768C1094.23 358.311 1060.53 333.029 1019.45 323.038C974.546 312.091 929.031 325.905 884.993 339.198C882.428 339.98 879.907 340.718 877.385 341.5C771.443 373.341 670.588 449.144 593.424 554.919C572.862 583.112 552.908 612.781 533.65 641.495C485.744 712.823 436.185 786.583 372.455 844.228C342.372 871.508 307.681 893.402 274.772 905.825C252.775 914.166 231.648 918.336 212.042 918.336Z" fill="white"/>
<path d="M179.09 903.48C166.048 903.48 153.745 901.481 142.312 897.485C98.84 882.194 78.321 845.748 56.5849 807.174C51.8899 798.79 46.9775 790.145 41.8478 781.631C36.1529 772.292 29.6755 762.648 22.0679 752.049C-25.4039 686.064 -84.1785 623.207 -143.475 575.119C-230.071 504.833 -330.666 455.833 -434.304 433.332C-503.773 418.258 -561.504 419.214 -605.933 436.199C-630.451 445.582 -652.927 462.61 -667.533 482.809C-682.357 503.313 -687.965 524.685 -683.227 543.017L-685.053 543.495C-687.53 533.938 -687.27 523.556 -684.314 512.696C-681.488 502.27 -676.358 491.845 -669.055 481.723C-661.751 471.645 -652.709 462.436 -642.189 454.4C-631.277 446.059 -619.279 439.326 -606.585 434.461C-582.371 425.208 -554.114 420.604 -522.64 420.777C-495.861 420.908 -465.996 424.513 -433.913 431.507C-381.703 442.845 -329.884 461.003 -280.021 485.503C-231.245 509.438 -184.904 539.107 -142.301 573.685C-82.9177 621.86 -24.0128 684.848 23.5894 750.963C31.2405 761.562 37.7179 771.293 43.4562 780.675C48.6295 789.19 53.4984 797.878 58.2368 806.261C79.7991 844.532 100.144 880.717 142.964 895.747C171.917 905.912 206.999 902.871 244.472 886.972C275.164 873.941 307.681 852.047 335.981 825.332C395.017 769.859 442.054 700.225 487.569 632.85C507.219 603.746 527.52 573.685 548.561 545.102C584.382 496.449 625.55 454.052 670.935 418.996C718.755 382.073 770.009 354.358 823.306 336.635C826.436 335.592 829.566 334.55 832.696 333.507C881.254 317.217 931.465 300.363 981.371 313.177C1026.54 324.776 1062.49 354.315 1097.27 382.855C1100.92 385.852 1104.75 388.98 1108.48 392.02C1165.04 438.197 1224.69 479.247 1285.72 513.999C1313.37 529.724 1345.45 534.372 1373.8 538.456L1377.14 538.933C1407.36 543.321 1429.48 533.981 1447.26 526.423C1451.74 524.555 1455.96 522.73 1460.04 521.297C1466.13 519.125 1472.13 516.953 1477.87 514.824C1500.47 506.614 1521.82 498.839 1546.64 491.454C1577.9 482.158 1615.41 472.297 1665.45 473.122C1701.75 473.687 1742.74 482.071 1783.96 497.362C1826.73 513.217 1867.99 535.936 1903.38 563.086C1938.33 589.932 1971.1 622.555 2000.84 660C2027.58 693.666 2051.75 731.154 2072.74 771.423L2071.09 772.292C2026.75 687.193 1968.37 615.387 1902.24 564.606C1831.82 510.524 1741.05 476.163 1665.45 475.034C1615.72 474.208 1578.33 484.026 1547.21 493.278C1522.43 500.663 1501.13 508.395 1478.52 516.605C1472.74 518.691 1466.78 520.863 1460.65 523.078C1456.61 524.511 1452.44 526.293 1448 528.204C1433.22 534.459 1415.44 541.974 1392.53 541.974C1387.58 541.974 1382.36 541.627 1376.88 540.845L1373.53 540.367C1345.06 536.24 1312.76 531.592 1284.81 515.693C1223.69 480.898 1163.95 439.804 1107.35 393.541C1103.62 390.5 1099.83 387.372 1096.14 384.375C1061.53 355.965 1025.76 326.557 980.98 315.045C931.595 302.361 881.646 319.129 833.348 335.375C830.218 336.418 827.044 337.504 823.958 338.546C720.755 372.907 623.507 446.711 550.126 546.362C529.129 574.902 508.784 604.962 489.178 634.023C443.619 701.441 396.495 771.162 337.329 826.808C308.855 853.654 276.163 875.678 245.255 888.797C221.997 898.527 199.652 903.48 179.09 903.48Z" fill="white"/>
<path d="M146.007 889.101C136.748 889.101 127.836 888.015 119.446 885.756C100.622 880.761 85.0157 871.551 70.3656 856.782C57.3674 843.663 46.7601 827.894 35.5443 811.127C30.7623 804.003 25.8499 796.661 20.5898 789.363C15.0253 781.588 8.59143 773.334 0.331726 763.343C-36.9241 718.296 -95.6117 653.223 -163.907 599.184C-248.156 532.461 -345.23 484.938 -444.694 461.741C-511.12 446.233 -566.634 445.538 -609.672 459.656C-633.451 467.475 -654.926 481.68 -670.098 499.664C-684.792 517.083 -691.617 536.11 -688.791 551.878L-690.921 552.269C-693.877 535.849 -686.878 516.171 -671.75 498.274C-656.317 480.029 -634.494 465.564 -610.324 457.614C-586.849 449.925 -559.635 446.537 -529.378 447.536C-503.599 448.405 -474.907 452.488 -444.129 459.656C-344.36 482.94 -246.982 530.636 -162.472 597.534C-94.0466 651.703 -35.2286 716.862 2.07062 761.996C10.3303 771.987 16.8077 780.285 22.4156 788.104C27.6758 795.402 32.5881 802.786 37.3701 809.91C60.0626 843.706 79.6251 872.898 120.011 883.628C147.355 890.882 180.133 885.973 214.824 869.423C243.907 855.522 273.599 834.106 300.682 807.478C355.066 754.221 399.494 688.8 442.488 625.509C462.616 595.883 483.439 565.214 505.045 536.153C539.519 489.803 579.383 448.926 623.551 414.652C669.284 379.162 718.494 351.752 769.748 333.159C772.965 331.987 776.182 330.814 779.399 329.641C805.7 320.041 832.87 310.093 860.301 304.402C891.34 297.973 918.423 298.06 943.072 304.62C992.196 317.782 1030.36 351.535 1067.32 384.158C1071.62 387.98 1076.1 391.89 1080.49 395.713C1140.48 448.231 1205.21 494.712 1272.9 533.764C1294.33 546.144 1335.93 565.953 1373.32 559.22C1414.53 551.835 1438.09 538.586 1453.96 527.9C1462.91 521.905 1471.39 515.954 1479.56 510.22C1496.3 498.448 1512.12 487.37 1531.21 476.25C1558.07 460.655 1595.59 442.106 1647.93 437.111C1685.1 433.505 1727.96 439.022 1771.96 453.053C1817.08 467.432 1860.47 489.977 1897.46 518.256C1985.28 585.284 2037.79 675.291 2066.4 738.973L2064.44 739.842C2035.92 676.377 1983.58 586.717 1896.16 519.95C1822.21 463.479 1724.88 431.811 1648.19 439.239C1596.24 444.191 1558.99 462.61 1532.34 478.118C1513.34 489.152 1497.56 500.229 1480.87 511.957C1472.65 517.735 1464.17 523.686 1455.22 529.681C1439.13 540.497 1415.36 553.833 1373.75 561.305C1368.45 562.261 1363.01 562.695 1357.62 562.695C1324.28 562.695 1290.55 546.362 1271.85 535.589C1204.08 496.449 1139.22 449.925 1079.14 397.277C1074.75 393.454 1070.27 389.501 1065.97 385.678C1029.23 353.229 991.196 319.65 942.594 306.618C888.253 292.066 833.348 312.135 780.225 331.552C777.008 332.725 773.791 333.898 770.574 335.071C670.457 371.43 576.818 443.236 506.871 537.326C485.265 566.387 464.486 597.012 444.358 626.638C401.32 690.017 356.805 755.524 302.247 808.911C274.99 835.714 245.081 857.26 215.78 871.247C191.175 883.15 167.526 889.101 146.007 889.101Z" fill="white"/>
<path d="M112.708 875.374C107.187 875.374 101.796 874.94 96.6229 874.071C57.1935 867.425 36.9789 842.751 13.5474 814.167C9.02625 808.651 4.33124 802.917 -0.581116 797.226C-7.53668 789.19 -15.3182 781.023 -21.3174 774.768C-68.2675 726.115 -123.434 670.252 -184.252 623.337C-266.11 560.175 -359.749 514.173 -455.041 490.238C-518.423 474.295 -571.72 471.949 -613.41 483.157C-636.103 489.282 -657.143 501.141 -672.663 516.562C-687.4 531.158 -695.312 547.317 -694.312 560.784L-696.79 560.957C-697.833 546.753 -689.704 529.898 -674.445 514.781C-658.621 499.099 -637.19 487.023 -614.106 480.768C-591.413 474.643 -565.199 472.471 -536.203 474.295C-511.424 475.859 -483.906 480.42 -454.475 487.805C-358.88 511.827 -264.893 558.003 -182.774 621.382C-121.825 668.384 -66.5721 724.334 -19.5786 773.073C-13.5359 779.329 -5.71088 787.539 1.24469 795.619C6.20056 801.353 10.8955 807.087 15.4166 812.647C38.5004 840.839 58.4543 865.166 97.0142 871.682C122.793 876.026 153.267 869.249 185.089 852.047C212.129 837.451 239.864 815.948 265.295 789.754C314.897 738.973 356.587 677.984 396.843 618.949C417.622 588.542 439.098 557.048 461.486 527.292C494.699 483.113 533.259 443.757 576.122 410.308C619.855 376.165 666.979 349.102 716.147 329.815C718.929 328.729 721.755 327.599 724.537 326.513C753.402 315.175 783.224 303.403 813.394 296.627C847.65 288.894 877.472 288.808 904.643 296.323C957.766 311.049 998.282 349.058 1037.49 385.808C1042.36 390.37 1047.41 395.105 1052.36 399.709C1116 458.657 1185.82 510.524 1259.94 553.833C1289.02 570.862 1331.71 589.15 1369.62 579.81C1411.18 569.558 1433.22 550.445 1447.83 534.894C1456.65 525.554 1464.74 516.214 1472.61 507.179C1486.3 491.41 1499.26 476.511 1515.69 461.437C1537.77 441.151 1573.68 412.828 1630.37 401.403C1708.66 385.461 1813.61 414.522 1891.46 473.687C1929.28 502.444 1963.5 538.412 1993.15 580.679C2019.97 618.906 2042.44 661.347 2059.96 706.828L2057.66 707.697C2020.84 612.216 1961.28 529.811 1889.99 475.642C1812.65 416.911 1708.49 388.024 1630.85 403.836C1574.77 415.13 1539.21 443.149 1517.38 463.261C1501.08 478.248 1488.17 493.105 1474.52 508.83C1466.65 517.909 1458.52 527.248 1449.65 536.631C1434.83 552.4 1412.4 571.861 1370.23 582.243C1353.76 586.283 1334.89 585.544 1314.11 579.941C1296.46 575.206 1277.81 567.126 1258.72 555.962C1184.47 512.566 1114.48 460.568 1050.71 401.49C1045.75 396.886 1040.71 392.151 1035.8 387.589C996.804 351.057 956.505 313.264 903.991 298.712C844.129 282.161 783.79 305.879 725.406 328.859C722.581 329.945 719.798 331.074 716.973 332.16C620.247 370.04 530.172 439.891 463.399 528.812C441.054 558.568 419.579 589.975 398.842 620.383C358.5 679.461 316.767 740.581 266.991 791.492C241.342 817.816 213.433 839.536 186.176 854.219C160.31 868.206 135.183 875.374 112.708 875.374Z" fill="white"/>
<path d="M79.0601 862.516C77.2777 862.516 75.5389 862.472 73.8 862.386C56.1937 861.386 41.2827 856.651 26.8499 847.573C13.8516 839.362 2.28802 828.242 -9.92767 816.426C-13.7532 812.734 -17.7092 808.911 -21.8391 805.089C-28.4034 798.964 -35.8372 792.491 -43.0536 786.192C-55.6606 775.246 -69.05 763.126 -83.2655 750.311C-119.739 717.471 -161.037 680.199 -204.727 647.446C-284.238 587.847 -374.4 543.321 -465.517 518.647C-525.857 502.314 -576.937 498.274 -617.323 506.614C-638.842 511.089 -659.491 520.645 -675.402 533.417C-690.139 545.276 -699.094 558.525 -699.964 569.776L-702.702 569.558C-701.789 557.569 -692.443 543.625 -677.141 531.288C-660.882 518.213 -639.841 508.482 -617.888 503.921C-595.934 499.36 -570.764 498.404 -543.029 501.097C-519.249 503.4 -492.948 508.395 -464.822 515.997C-373.356 540.714 -282.847 585.414 -203.075 645.23C-159.299 678.071 -117.913 715.342 -81.4396 748.226C-67.2242 761.041 -53.8347 773.117 -41.2277 784.064C-34.0114 790.363 -26.5341 796.878 -19.9263 803.003C-15.753 806.87 -11.797 810.692 -7.97144 814.385C16.9817 838.407 36.6746 857.39 73.9739 859.562C98.1445 860.952 126.315 852.308 155.398 834.497C180.351 819.25 206.13 797.574 229.996 771.901C274.642 723.943 313.289 667.645 350.632 613.215C372.281 581.678 394.626 549.098 418.014 518.3C450.009 476.163 487.265 438.284 528.694 405.704C570.471 372.82 615.552 346.148 662.632 326.339L668.11 324.037C699.758 310.745 732.492 296.974 765.749 288.851C803.526 279.642 836.478 279.294 866.387 287.808C923.596 304.098 966.504 346.365 1007.98 387.285C1013.37 392.585 1018.93 398.102 1024.41 403.402C1091.75 468.822 1166.69 526.119 1247.16 573.642C1279.2 592.538 1325.85 612.52 1366.1 600.14C1408.62 587.108 1428.96 562.043 1441.87 541.67C1449.83 529.203 1456.91 516.692 1463.78 504.573C1474.61 485.459 1485.82 465.651 1500.34 446.363C1531.03 405.487 1567.86 379.032 1612.89 365.392C1632.33 359.484 1653.97 356.443 1677.23 356.4C1700.01 356.356 1723.79 359.136 1747.92 364.697C1772.18 370.3 1796.17 378.511 1819.3 389.197C1843.08 400.187 1865.38 413.48 1885.64 428.77C1924.94 458.483 1959.85 496.145 1989.41 540.801C2016.23 581.331 2037.88 626.247 2053.7 674.335L2051.09 675.204C2017.75 573.989 1958.41 487.24 1883.99 430.986C1803.35 370.04 1692.23 344.15 1613.72 368.042C1569.25 381.464 1532.9 407.615 1502.56 448.014C1488.17 467.171 1477.52 485.98 1466.22 505.919C1459.35 518.082 1452.22 530.636 1444.22 543.147C1435.4 557.004 1426.35 567.647 1415.79 576.639C1402.01 588.324 1386.05 596.882 1366.93 602.746C1358.02 605.483 1348.8 606.699 1339.5 606.699C1305.89 606.699 1271.24 591.018 1245.77 575.988C1165.13 528.378 1090.01 470.95 1022.5 405.356C1017.02 400.013 1011.41 394.54 1006.02 389.197C964.765 348.537 922.118 306.488 865.604 290.415C799.657 271.649 733.318 299.537 669.153 326.557L663.676 328.859C570.558 367.955 484.091 435.851 420.187 519.95C396.843 550.706 374.498 583.285 352.892 614.779C315.506 669.296 276.816 725.681 231.996 773.769C207.999 799.659 182.002 821.465 156.832 836.843C129.357 853.741 102.579 862.516 79.0601 862.516Z" fill="white"/>
<path d="M42.3694 850.961C9.41742 850.961 -10.0582 836.8 -36.272 817.773C-38.4456 816.209 -40.6627 814.602 -42.9667 812.951C-46.7053 810.258 -50.6179 807.521 -54.7912 804.611C-58.0081 802.352 -61.312 800.05 -64.7028 797.617C-87.1345 781.675 -111.957 761.388 -138.258 739.886C-166.167 717.08 -195.033 693.492 -225.159 671.598C-302.279 615.518 -389.006 572.512 -475.951 547.144C-533.291 530.419 -582.154 524.685 -621.148 530.159C-641.493 533.026 -661.708 540.237 -678.097 550.402C-692.53 559.394 -702.789 570.08 -705.571 578.985L-708.484 578.073C-702.355 558.525 -665.968 533.417 -621.583 527.118C-600.369 524.164 -576.198 524.425 -549.81 527.9C-527.031 530.897 -501.904 536.371 -475.081 544.19C-430.957 557.048 -386.876 574.424 -344.056 595.753C-302.149 616.647 -261.545 641.321 -223.333 669.079C-193.164 691.016 -164.254 714.647 -136.302 737.453C-110.044 758.912 -85.2653 779.155 -62.877 795.054C-59.4862 797.487 -56.1823 799.789 -52.9653 802.048C-48.792 804.958 -44.8795 807.738 -41.1409 810.432C-38.8803 812.082 -36.6198 813.69 -34.4461 815.254C-6.53693 835.54 13.6342 850.179 50.89 847.573C73.4521 846.009 99.3181 835.453 125.706 817.078C148.572 801.136 172.439 779.372 194.653 754.134C234.126 709.478 269.338 658.349 303.377 608.915C326.157 575.814 349.719 541.627 374.498 509.394C405.363 469.256 441.228 432.81 481.179 401.099C521.043 369.432 564.081 343.151 609.031 322.951L609.553 322.734C644.243 307.183 680.108 291.11 716.842 281.423C758.619 270.433 795.005 269.781 828.044 279.381C889.34 297.235 934.682 343.846 978.458 388.936C984.327 394.974 990.413 401.23 996.369 407.268C1067.45 479.204 1147.48 541.887 1234.29 593.581C1269.29 614.432 1319.93 636.021 1362.49 620.644C1406.83 604.571 1425.61 571.861 1435.92 548.621C1442.79 533.156 1448.65 517.561 1454.31 502.531C1463.09 479.204 1472.13 455.095 1484.95 431.507C1496.95 409.44 1511.12 390.196 1527.12 374.34C1546.73 354.879 1569.68 339.849 1595.33 329.641C1615.24 321.691 1637.67 316.913 1661.97 315.436C1685.62 314.003 1710.49 315.74 1735.88 320.605C1761.22 325.471 1786.39 333.29 1810.61 343.889C1835.47 354.793 1858.73 368.302 1879.73 384.114C1920.5 414.783 1956.11 454.183 1985.58 501.184C2012.45 544.016 2033.23 591.452 2047.36 642.103L2044.4 642.928C2014.58 535.98 1955.45 444.93 1877.86 386.547C1792.74 322.517 1677.01 300.276 1596.46 332.421C1550.51 350.709 1513.91 384.505 1487.61 432.897C1474.87 456.311 1465.87 480.333 1457.13 503.574C1451.44 518.691 1445.57 534.329 1438.66 549.837C1428.14 573.555 1408.92 607.004 1363.49 623.467C1353.1 627.246 1342.23 628.854 1331.24 628.854C1296.15 628.854 1259.81 612.303 1232.68 596.144C1145.7 544.32 1065.45 481.506 994.152 409.353C988.153 403.315 982.067 397.059 976.198 391.021C932.639 346.235 887.645 299.928 827.088 282.292C754.315 261.093 678.021 295.324 610.726 325.471L610.205 325.688C519.608 366.304 438.924 430.465 376.845 511.176C352.11 543.321 328.591 577.508 305.812 610.566C271.729 660.087 236.43 711.302 196.87 756.089C174.482 781.501 150.442 803.438 127.358 819.511C100.535 838.19 74.1476 848.919 51.0204 850.527C48.0643 850.874 45.1951 850.961 42.3694 850.961Z" fill="white"/>
<path d="M2.2879 841.969C-21.5349 841.969 -39.7933 833.324 -64.0073 820.857L-65.5289 820.075C-71.7889 816.861 -78.8749 813.212 -86.3087 809.042C-116.044 792.491 -149.17 767.47 -184.208 740.972C-204.162 725.898 -224.768 710.347 -245.591 695.707C-320.363 643.189 -403.613 601.617 -486.428 575.553C-540.725 558.438 -587.37 551.053 -625.104 553.616C-668.968 556.657 -702.572 576.118 -711.484 588.324L-714.179 586.37C-708.875 579.072 -696.964 570.862 -682.314 564.302C-670.142 558.872 -650.362 552.009 -625.322 550.315C-604.846 548.925 -581.762 550.402 -556.635 554.702C-534.856 558.438 -510.903 564.389 -485.428 572.382C-443.347 585.631 -401.178 602.79 -360.141 623.337C-319.972 643.449 -280.804 666.863 -243.678 692.971C-222.812 707.653 -202.162 723.248 -182.208 738.322C-147.257 764.733 -114.218 789.668 -84.7001 806.131C-77.3098 810.258 -70.2673 813.907 -64.0073 817.121L-62.4858 817.903C-29.925 834.714 -9.66693 843.837 27.6758 835.67C48.6294 831.109 72.2349 818.685 95.9272 799.789C116.75 783.195 138.661 761.301 159.266 736.497C193.175 695.925 224.431 650.574 254.645 606.743C279.033 571.383 304.203 534.85 330.938 500.576C360.674 462.393 395.234 427.38 433.577 396.538C471.571 366 512.566 340.153 555.43 319.693C593.989 301.275 631.767 283.899 670.24 273.473C715.016 261.31 754.054 260.528 789.702 271.128C855.128 290.589 902.86 341.5 949.028 390.761C955.375 397.537 961.895 404.487 968.373 411.264C1043.28 489.716 1128.39 557.83 1221.47 613.65C1259.46 636.456 1314.15 659.739 1358.88 641.234C1404.7 622.294 1421.4 583.329 1429.92 555.701C1435.61 537.326 1440.18 518.821 1444.57 500.88C1451.35 473.296 1458.35 444.756 1469.57 416.738C1492.69 359.006 1529.12 317.695 1577.77 293.933C1598.16 283.942 1621.37 277.426 1646.76 274.516C1671.32 271.736 1697.27 272.431 1723.83 276.558C1777.52 284.941 1830.78 307.313 1873.77 339.502C1916.03 371.126 1952.32 412.22 1981.76 461.611C1995.32 484.373 2007.27 508.83 2017.36 534.242C2027.05 558.699 2034.97 584.154 2040.97 609.871L2037.7 610.609C2011.45 497.926 1952.5 402.576 1871.77 342.108C1783.57 276.036 1660.54 257.01 1579.25 296.844C1531.34 320.214 1495.47 360.961 1472.65 417.867C1461.52 445.668 1454.52 474.078 1447.79 501.575C1443.35 519.559 1438.83 538.152 1433.09 556.613C1426.96 576.465 1419.22 592.538 1409.44 605.831C1396.75 623.076 1380.19 635.978 1360.1 644.275C1339.89 652.615 1316.06 653.484 1289.33 646.838C1267.77 641.451 1244.34 631.243 1219.69 616.473C1173.21 588.585 1128.05 557.178 1085.44 523.034C1043.19 489.195 1002.98 452.358 965.938 413.523C959.461 406.746 952.94 399.753 946.593 393.019C900.73 344.019 853.302 293.412 788.745 274.212C708.321 250.32 624.377 290.415 556.908 322.604C470.354 363.915 393.147 426.164 333.634 502.531C306.985 536.761 281.815 573.251 257.47 608.567C227.214 652.485 195.914 697.836 161.875 738.539C141.095 763.517 119.011 785.584 98.0574 802.308C73.9737 821.552 49.8901 834.193 28.4583 838.885C18.8074 841.013 10.2433 841.969 2.2879 841.969Z" fill="white"/>
<path d="M-40.3583 837.191C-53.1827 837.191 -66.5287 834.671 -84.9609 828.72C-93.5685 825.94 -100.828 823.333 -107.784 820.466C-143.388 805.914 -182.6 778.243 -224.072 748.965C-237.766 739.321 -251.895 729.33 -265.936 719.816C-339.361 670.121 -417.046 631.156 -496.818 604.006C-548.81 586.283 -592.065 577.508 -628.973 577.074C-629.582 577.074 -630.191 577.074 -630.756 577.074C-672.185 577.074 -705.571 590.496 -717.57 597.707L-719.439 594.58C-706.963 587.108 -672.011 573.077 -628.93 573.468C-591.631 573.859 -548.028 582.764 -495.644 600.574C-455.606 614.215 -415.394 631.156 -376.095 650.921C-337.665 670.295 -299.888 692.449 -263.893 716.819C-249.808 726.332 -235.679 736.324 -221.986 746.011C-180.687 775.159 -141.649 802.699 -106.436 817.121C-99.5241 819.945 -92.3513 822.551 -83.8741 825.288C-52.4437 835.453 -31.1857 837.799 4.46161 823.724C23.7198 816.122 45.0648 801.831 66.1488 782.37C84.8854 765.124 104.839 743.1 123.88 718.687C151.615 683.371 178.09 644.926 203.652 607.742C230.3 568.994 257.862 528.942 287.379 491.584C316.071 455.269 349.24 421.69 385.931 391.76C422.056 362.308 461.051 336.895 501.785 316.218C582.382 275.298 668.066 237.462 751.272 262.613C820.871 283.638 871.038 338.894 919.553 392.368C926.335 399.84 933.334 407.572 940.246 415C1018.93 500.012 1109.18 573.512 1208.51 633.458C1249.51 658.219 1308.2 683.197 1355.19 661.607C1391.31 645.013 1413.14 613.52 1423.92 562.478C1428.4 541.279 1431.61 519.863 1434.74 499.099C1439.53 467.171 1444.48 434.157 1454.18 401.664C1463.09 371.821 1475.52 345.149 1491.13 322.387C1509.73 295.28 1532.95 273.604 1560.2 257.965C1581.11 245.933 1605.07 237.636 1631.5 233.335C1656.97 229.165 1683.97 228.817 1711.75 232.249C1767.78 239.199 1823.21 261.354 1867.86 294.629C1911.55 327.208 1948.59 369.996 1977.93 421.82C2004.45 468.648 2024.05 522.47 2034.62 577.508L2031.05 578.203C2008.66 461.524 1948.41 359.267 1865.68 297.582C1773.04 228.513 1645.32 213.179 1562.03 261.137C1512.3 289.72 1477.17 337.373 1457.7 402.707C1448.09 434.939 1443.13 467.823 1438.4 499.664C1435.27 520.472 1432.05 541.931 1427.53 563.26C1422.7 586.152 1415.79 604.788 1406.36 620.34C1394.18 640.409 1377.49 655.439 1356.75 664.952C1335.32 674.813 1309.89 676.246 1281.16 669.209C1258.29 663.605 1233.21 652.659 1206.69 636.629C1157.17 606.743 1109.14 572.903 1064.01 536.11C1019.15 499.534 976.633 459.656 937.638 417.563C930.726 410.091 923.683 402.359 916.902 394.887C868.691 341.804 818.872 286.94 750.229 266.176C668.327 241.415 583.382 278.99 503.437 319.563C421.057 361.395 347.328 421.69 290.249 493.93C260.818 531.201 233.256 571.209 206.651 609.914C181.046 647.142 154.528 685.629 126.749 721.033C107.578 745.576 87.4503 767.731 68.5833 785.15C47.1514 804.915 25.4153 819.467 5.76575 827.199C-11.9274 834.15 -26.1429 837.277 -40.3149 837.321C-40.2714 837.191 -40.3149 837.191 -40.3583 837.191Z" fill="white"/>
<path d="M-85.7868 838.059C-92.0468 838.059 -98.6547 837.582 -105.828 836.583C-114 835.453 -121.651 833.933 -129.259 831.891C-169.819 821.074 -215.552 790.754 -259.763 761.432C-268.457 755.654 -277.5 749.66 -286.325 743.926C-357.358 697.793 -431.696 660.261 -507.251 632.416C-556.201 614.345 -597.325 603.919 -632.886 600.531C-669.359 597.099 -700.746 602.703 -719.483 606.091C-721.048 606.352 -722.482 606.613 -723.873 606.873L-724.569 603.007C-723.221 602.79 -721.743 602.529 -720.222 602.225C-701.268 598.837 -669.576 593.146 -632.538 596.622C-596.586 600.053 -555.201 610.566 -505.903 628.723C-430.044 656.699 -355.446 694.317 -284.194 740.624C-275.326 746.402 -266.284 752.353 -257.589 758.174C-213.639 787.322 -168.21 817.469 -128.259 828.068C-120.782 830.067 -113.305 831.543 -105.306 832.673C-73.1799 837.104 -52.1827 832.021 -18.7526 811.822C-1.32019 801.266 17.7642 785.063 36.4573 764.95C53.2811 746.793 70.8439 725.246 88.624 700.877C109.099 672.945 129.314 643.319 148.877 614.649C179.003 570.514 210.129 524.859 244.038 482.592C299.16 413.871 369.803 355.14 448.357 312.786C486.178 292.37 531.085 269.781 577.514 256.662C627.942 242.458 672.283 241.589 713.104 254.099C786.876 276.731 839.521 336.331 890.384 393.975C897.6 402.142 905.077 410.613 912.381 418.736C994.935 510.263 1090.27 589.193 1195.82 653.267C1259.81 692.145 1312.28 701.789 1351.71 681.937C1388.58 663.388 1410.31 626.551 1418.14 569.254C1421.4 545.276 1423.31 520.993 1425.14 497.492C1427.96 461.177 1430.87 423.601 1439 386.634C1446.44 352.925 1457.96 322.517 1473.35 296.323C1491.43 265.437 1514.82 240.459 1542.82 222.041C1564.2 207.966 1588.98 197.932 1616.41 192.198C1642.8 186.681 1670.89 185.247 1699.88 187.984C1758.22 193.457 1815.82 215.438 1862.12 249.799C1885.12 266.871 1906.46 287.114 1925.59 309.919C1943.8 331.596 1960.15 355.879 1974.28 382.029C2000.8 431.16 2019.53 487.544 2028.4 545.102L2024.49 545.71C2005.62 423.427 1945.54 316.739 1859.73 252.97C1764.22 182.033 1628.89 170.13 1544.95 225.342C1480.78 267.479 1454 336.765 1442.83 387.503C1434.74 424.209 1431.83 461.654 1429.05 497.84C1427.22 521.384 1425.35 545.754 1422.05 569.819C1418.53 595.709 1412.4 616.951 1403.36 634.718C1391.71 657.654 1374.93 674.726 1353.49 685.499C1330.89 696.837 1303.85 698.879 1273.07 691.45C1248.86 685.629 1222.16 673.901 1193.78 656.655C1141.18 624.727 1090.36 588.498 1042.67 549.055C995.239 509.786 950.419 466.824 909.468 421.429C902.121 413.262 894.644 404.835 887.428 396.625C836.869 339.371 784.616 280.207 711.93 257.922C625.898 231.554 535.302 270.389 450.227 316.262C372.15 358.398 301.899 416.738 247.124 485.068C213.303 527.205 182.22 572.817 152.18 616.864C132.618 645.535 112.403 675.204 91.8845 703.179C74.0173 727.679 56.3676 749.312 39.4134 767.6C20.5029 787.973 1.11432 804.437 -16.6224 815.167C-33.8375 825.592 -47.3138 831.674 -60.3121 834.932C-68.6153 837.06 -76.875 838.059 -85.7868 838.059Z" fill="white"/>
<path d="M-132.259 844.488C-138.432 844.488 -144.605 844.098 -150.735 843.316C-195.641 837.538 -244.809 806.826 -292.324 777.113C-297.062 774.16 -301.975 771.075 -306.8 768.078C-375.443 725.507 -446.433 689.409 -517.815 660.869C-563.721 642.494 -602.673 630.418 -636.972 623.988C-663.186 619.08 -687.487 618.037 -706.963 617.212C-715.874 616.821 -723.569 616.517 -730.22 615.865L-729.829 611.652C-723.265 612.26 -715.657 612.607 -706.789 612.998C-687.139 613.824 -662.708 614.91 -636.19 619.862C-601.629 626.378 -562.374 638.497 -516.25 656.959C-444.651 685.629 -373.4 721.815 -304.583 764.516C-299.758 767.513 -294.845 770.554 -290.107 773.551C-242.983 803.004 -194.25 833.498 -150.213 839.145C-142.475 840.145 -134.606 840.492 -126.868 840.188C-93.2207 838.885 -71.0933 825.071 -42.0538 800.093C-26.7081 786.887 -9.84088 768.773 6.63513 747.705C21.2418 729.069 36.8918 707.393 53.194 683.24C64.2359 666.994 75.4083 650.183 86.1895 633.936C121.967 580.158 158.962 524.555 200.435 473.73C253.427 408.745 320.592 351.969 394.625 309.485C427.969 290.371 478.353 263.222 530.868 248.278C555.908 241.154 580.078 237.158 602.684 236.419C627.767 235.594 651.981 238.765 674.63 245.802C752.576 269.998 807.656 333.985 860.953 395.843C868.604 404.705 876.472 413.871 884.254 422.689C970.633 520.776 1071.1 605.092 1182.87 673.293C1251.25 715.038 1306.8 724.856 1348.02 702.528C1386.19 681.807 1407.18 640.496 1412.14 576.292C1414.22 549.576 1414.75 522.47 1415.31 496.232C1416.14 455.486 1417.01 413.349 1423.61 371.821C1432.7 314.567 1457.74 235.941 1525.17 186.377C1547.03 170.304 1572.59 158.488 1601.07 151.277C1628.33 144.414 1657.5 141.938 1687.71 143.936C1748.35 147.976 1808.13 169.739 1856.08 205.186C1879.77 222.736 1901.72 243.674 1921.2 267.392C1939.76 289.937 1956.28 315.219 1970.37 342.499C1996.88 393.932 2014.75 452.879 2021.97 512.957L2017.75 513.478C2002.36 385.591 1942.54 274.473 1853.56 208.618C1753.66 134.683 1613.55 126.604 1527.64 189.765C1461.35 238.461 1436.74 316.001 1427.74 372.472C1421.18 413.74 1420.35 455.703 1419.53 496.319C1419.01 522.6 1418.44 549.75 1416.35 576.596C1414.14 605.527 1408.83 629.288 1400.18 649.314C1389.05 675.074 1372.19 694.231 1350.06 706.263C1335.24 714.3 1318.54 718.34 1300.07 718.34C1288.94 718.34 1277.2 716.863 1264.85 713.952C1239.29 707.871 1210.95 695.403 1180.69 676.942C1125.05 642.972 1071.36 604.397 1021.15 562.217C971.112 520.211 923.988 474.208 881.124 425.512C873.342 416.651 865.43 407.485 857.779 398.623C804.874 337.199 750.185 273.734 673.413 249.886C577.818 220.216 475.354 268.13 396.756 313.221C323.157 355.444 256.384 411.916 203.739 476.467C162.396 527.161 125.488 582.677 89.7542 636.325C78.9296 652.572 67.7571 669.383 56.7152 685.629C40.3261 709.869 24.6326 731.632 9.98248 750.311C-6.66742 771.597 -23.7085 789.885 -39.2716 803.308C-69.0501 828.937 -91.7862 843.055 -126.694 844.402C-128.564 844.445 -130.39 844.488 -132.259 844.488Z" fill="white"/>
<path d="M-172.601 854.697C-221.29 854.697 -272.631 824.376 -322.32 795.097L-327.189 792.23C-393.44 753.178 -461.083 718.557 -528.291 689.278C-571.112 670.599 -608.02 656.916 -641.015 647.402C-661.317 641.581 -681.01 637.368 -698.399 633.632C-712.179 630.678 -725.177 627.898 -736.437 624.77L-735.22 620.426C-724.134 623.554 -711.179 626.291 -697.486 629.245C-680.053 632.98 -660.273 637.194 -639.798 643.102C-606.585 652.702 -569.547 666.472 -526.553 685.195C-459.17 714.517 -391.354 749.268 -324.928 788.408L-320.059 791.275C-270.892 820.292 -220.073 850.266 -172.645 850.266C-172.471 850.266 -172.34 850.266 -172.166 850.266C-164.124 850.222 -156.169 849.397 -148.474 847.79C-115.174 840.839 -92.7859 820.77 -65.3549 788.451C-52.4001 773.16 -38.2282 753.656 -23.2302 730.503C-11.4058 712.258 1.59247 691.667 17.7642 665.604C59.5845 598.446 104.752 527.639 156.875 464.869C182.611 433.853 211.564 404.487 242.864 377.598C273.599 351.187 306.638 327.165 340.981 306.183C393.843 273.908 440.706 252.144 484.222 239.721C510.61 232.162 536.171 227.992 560.255 227.297C586.773 226.515 612.335 229.947 636.288 237.462C718.407 263.265 775.964 331.596 831.652 397.667C839.695 407.224 848.042 417.128 856.258 426.598C946.506 531.245 1052.06 620.948 1170 693.275C1242.81 737.887 1301.46 747.922 1344.36 723.074C1383.88 700.182 1404.1 654.44 1406.18 583.242C1407.05 553.79 1406.27 523.903 1405.53 495.016C1404.36 449.839 1403.14 403.097 1408.23 356.964C1415.14 293.933 1438 206.924 1507.56 150.626C1529.9 132.511 1556.25 118.958 1585.77 110.314C1613.94 102.06 1644.19 98.5415 1675.62 99.8447C1706.53 101.104 1737.31 106.969 1767.09 117.221C1797.39 127.646 1825.34 142.242 1850.17 160.573C1874.6 178.601 1897.07 200.234 1916.94 224.821C1935.85 248.235 1952.54 274.516 1966.54 302.925C1993.06 356.66 2010.01 418.171 2015.58 480.768L2011.06 481.159C1999.36 349.623 1938.2 231.12 1847.43 164.179C1744.88 88.5504 1596.85 84.1195 1510.39 154.144C1442.05 209.487 1419.53 295.237 1412.7 357.442C1407.66 403.228 1408.88 449.839 1410.05 494.885C1410.79 523.86 1411.57 553.79 1410.7 583.372C1409.75 615.3 1405.31 641.625 1397.05 663.909C1386.45 692.536 1369.49 713.735 1346.63 726.984C1330.76 736.193 1312.63 740.798 1292.59 740.798C1281.24 740.798 1269.24 739.321 1256.68 736.367C1229.73 730.025 1199.78 716.819 1167.65 697.141C1108.92 661.129 1052.4 620.166 999.673 575.336C947.071 530.593 897.643 481.549 852.823 429.552C844.607 420.039 836.261 410.135 828.218 400.578C772.965 334.984 715.842 267.174 634.94 241.762C553.995 216.35 461.355 238.026 343.372 310.049C274.381 352.186 211.129 406.703 160.397 467.779C108.447 530.332 63.3666 601.009 21.6332 667.993C5.46149 694.057 -7.5802 714.69 -19.4047 732.935C-34.533 756.262 -48.7919 775.897 -61.8771 791.318C-89.9167 824.419 -112.914 844.966 -147.518 852.177C-155.516 853.828 -163.776 854.697 -172.123 854.74C-172.297 854.697 -172.427 854.697 -172.601 854.697Z" fill="white"/>
<path d="M-208.727 866.99C-227.767 866.99 -248.504 862.646 -271.631 853.828C-296.497 844.358 -320.711 831.239 -347.577 816.339C-411.438 780.849 -475.777 747.618 -538.812 717.688C-578.589 698.792 -613.367 683.414 -645.102 670.773C-661.143 664.387 -676.836 658.566 -692.008 652.963C-709.832 646.36 -726.699 640.148 -742.479 633.589L-740.61 629.114C-724.917 635.63 -708.136 641.842 -690.313 648.445C-675.097 654.049 -659.36 659.87 -643.276 666.299C-611.454 678.983 -576.589 694.404 -536.725 713.344C-473.603 743.361 -409.134 776.592 -345.186 812.169C-300.54 837.017 -244.983 867.902 -194.076 861.256C-185.686 860.127 -177.557 858.128 -169.949 855.305C-135.389 842.577 -112.392 814.645 -88.4822 776.679C-75.9622 756.784 -64.0073 734.412 -52.9219 713.214C-41.3148 690.972 -29.4033 668.992 -17.4919 647.88C24.9805 572.599 67.8442 509.785 113.49 455.92C138.356 426.555 165.831 398.623 195.175 372.82C224.214 347.321 255.253 323.733 287.466 302.795C405.58 225.907 510.088 201.103 598.032 228.991C684.368 256.401 744.404 329.076 802.439 399.362C810.916 409.613 819.654 420.213 828.262 430.378C922.379 541.583 1033.02 636.716 1157.17 713.127C1234.38 760.65 1296.15 770.858 1340.76 743.491C1381.06 718.73 1401.05 667.124 1400.31 590.062C1400.01 557.917 1397.92 525.25 1395.88 493.669C1392.71 444.018 1389.45 392.628 1392.92 341.934C1396.05 296.714 1404.97 255.185 1419.4 218.565C1436.05 176.299 1459.78 141.373 1490.04 114.745C1512.91 94.632 1539.99 79.2977 1570.55 69.2197C1599.63 59.6195 1630.93 55.0584 1663.58 55.5797C1695.62 56.1444 1727.49 61.5743 1758.39 71.7392C1789.78 82.0779 1818.65 96.8908 1844.25 115.7C1869.42 134.206 1892.46 156.534 1912.68 182.033C1931.94 206.315 1948.76 233.596 1962.76 263.178C1989.28 319.215 2005.36 383.289 2009.23 448.405L2004.4 448.709C1996.19 311.657 1935.24 188.635 1841.34 119.61C1734.49 41.0708 1581.55 40.5061 1493.17 118.35C1422.79 180.339 1402.4 274.342 1397.71 342.238C1394.23 392.628 1397.49 443.8 1400.66 493.322C1402.66 524.946 1404.79 557.656 1405.1 589.975C1405.44 624.901 1401.79 653.788 1393.97 678.331C1383.92 709.782 1366.84 733.065 1343.23 747.574C1317.24 763.517 1285.37 767.296 1248.51 758.695C1220.21 752.092 1188.6 738.148 1154.56 717.21C1092.79 679.2 1033.45 635.804 978.198 588.324C922.988 540.845 871.299 488.761 824.479 433.505C815.828 423.297 807.091 412.698 798.614 402.446C741.013 332.682 681.412 260.572 596.467 233.596C509.957 206.142 406.841 230.772 289.988 306.835C224.953 349.189 166.744 400.361 117.055 459.048C71.5828 512.696 28.9365 575.249 -13.4055 650.269C-25.2734 671.338 -37.1414 693.275 -48.7485 715.472C-59.8774 736.801 -71.9193 759.26 -84.4827 779.285C-98.1331 800.962 -109.392 815.992 -121.043 827.981C-135.693 843.098 -151.169 853.524 -168.341 859.866C-176.296 862.82 -184.773 864.905 -193.511 866.078C-198.424 866.686 -203.51 866.99 -208.727 866.99Z" fill="white"/>
<path d="M-244.809 881.021C-259.98 881.021 -276.109 878.415 -293.454 873.115C-319.494 865.209 -344.491 852.655 -367.879 840.492L-748.435 642.45L-746.088 637.889L-365.575 835.931C-314.886 862.299 -265.327 884.931 -216.117 872.333C-146.344 854.48 -115.131 776.636 -87.6127 707.914C-86.0043 703.874 -84.3958 699.878 -82.7873 695.925C-50.8351 616.777 -7.23242 542.365 46.7601 474.73C100.753 407.094 163.657 348.059 233.778 299.32C258.688 282.031 283.989 266.827 309.115 254.23C336.677 240.372 364.108 229.512 390.67 221.91C451.531 204.535 508.393 204.057 559.646 220.477C650.156 249.495 712.669 326.513 773.139 401.056C782.007 412.003 791.18 423.297 800.222 434.157C898.209 551.922 1013.98 652.441 1144.31 732.979C1225.95 783.412 1290.85 793.838 1337.15 763.908C1378.75 737.019 1398.01 680.808 1394.4 596.882C1392.88 562.043 1389.49 526.64 1386.23 492.453C1381.06 438.284 1375.66 382.29 1377.62 326.991C1379.36 277.904 1387.36 232.683 1401.44 192.589C1417.62 146.586 1441.48 108.316 1472.43 78.9503C1495.78 56.7961 1523.64 39.7243 1555.25 28.1693C1585.24 17.2225 1617.59 11.5753 1651.5 11.4016C1684.62 11.2278 1717.66 16.2668 1749.66 26.3883C1782.13 36.64 1811.95 51.6702 1838.3 70.9574C1864.21 89.9406 1887.81 112.964 1908.37 139.375C1927.98 164.483 1944.98 192.806 1958.93 223.518C1985.41 281.901 2000.62 348.494 2002.84 416.173L1997.71 416.347C1992.97 273.777 1932.24 146.238 1835.25 75.1276C1724.14 -6.36528 1566.33 -3.06386 1476 82.6427C1403.66 151.321 1385.36 253.491 1382.75 327.165C1380.79 382.16 1386.14 437.98 1391.32 491.975C1394.62 526.249 1398.01 561.696 1399.49 596.708C1401.1 634.11 1398.23 666.472 1390.92 692.84C1381.45 727.114 1364.28 752.483 1339.89 768.252C1312.8 785.758 1279.33 790.102 1240.42 781.11C1210.73 774.246 1177.47 759.564 1141.57 737.366C1076.71 697.315 1014.54 651.573 956.766 601.356C898.991 551.183 844.955 496.015 796.223 437.458C787.18 426.555 777.964 415.261 769.096 404.314C709.104 330.379 647.069 253.926 557.994 225.386C433.533 185.508 303.247 257.27 236.647 303.577C97.275 400.491 -14.5358 540.541 -78.0923 697.879C-79.7007 701.832 -81.3092 705.829 -82.9177 709.869C-110.914 779.676 -142.605 858.823 -214.9 877.329C-224.42 879.805 -234.419 881.021 -244.809 881.021Z" fill="white"/>
</svg>
