<svg width="90" height="90" viewBox="0 0 90 90" fill="none" xmlns="http://www.w3.org/2000/svg">
<g clip-path="url(#clip0_10_424)">
<path fill-rule="evenodd" clip-rule="evenodd" d="M60.58 90H29.5782C28.8401 90 28.2074 89.3673 28.2074 88.5764V73.2864L4.63972 36.1687C4.42882 35.8524 4.3761 35.4306 4.42882 35.1142C4.53427 34.7451 4.74517 34.4288 5.06151 34.2179L10.3339 30.8436C10.6503 30.6854 11.0721 30.5799 11.3884 30.6854C11.7575 30.7908 12.0738 31.0017 12.2847 31.3181L36.9596 70.3866C37.065 70.6502 37.1705 70.9139 37.1705 71.1775V81.0369H52.9877V71.1775C52.9877 70.9139 53.0404 70.6502 53.1986 70.3866L77.8735 31.3181C78.0316 31.0017 78.4007 30.7381 78.7698 30.6854C79.1388 30.5799 79.5079 30.6854 79.8243 30.8963L84.9385 34.2179C85.5712 34.6397 85.7821 35.536 85.3603 36.1687L62.0035 73.2864V88.5764C62.0035 89.3673 61.3708 90 60.58 90Z" fill="#FFA500"/>
<path fill-rule="evenodd" clip-rule="evenodd" d="M45.0791 79.6133C43.3392 79.6133 41.7575 78.9279 40.5448 77.768C39.3849 76.6081 38.7522 75.0263 38.7522 73.4446C38.7522 71.7047 39.3849 70.0703 40.5448 68.9103C41.7047 67.7504 43.3392 67.065 45.0791 67.065C46.819 67.065 48.4534 67.7504 49.6134 68.9103C50.7733 70.0703 51.406 71.7047 51.406 73.4446C51.406 75.0263 50.7733 76.6081 49.6134 77.768C48.4534 78.9279 46.819 79.6133 45.0791 79.6133Z" fill="#FFA500"/>
<path fill-rule="evenodd" clip-rule="evenodd" d="M37.8559 62.1617C35.9578 62.1617 34.3234 61.529 33.0053 60.1582L32.7944 60C31.6872 58.8401 31.0018 57.1002 31.0018 55.3075C31.0018 53.3568 31.6344 51.775 33.0053 50.4042C34.3234 49.0334 35.9578 48.4007 37.8559 48.4007C39.8067 48.4007 41.3884 49.0861 42.7592 50.4042C44.0773 51.775 44.7627 53.3568 44.7627 55.3075C44.7627 57.2056 44.0773 58.8401 42.7592 60.1582C41.3884 61.529 39.8067 62.1617 37.8559 62.1617Z" fill="#FFA500"/>
<path fill-rule="evenodd" clip-rule="evenodd" d="M45.8172 47.8735C43.6028 47.8735 41.5466 47.0826 39.8594 45.5009C39.6485 45.4481 39.4376 45.29 39.2794 45.1318C37.8032 43.3919 37.0123 41.3357 37.0123 39.0685C37.0123 36.5905 37.8559 34.4815 39.4903 32.7944C39.5431 32.7944 39.5431 32.7416 39.5958 32.7416C41.4411 31.0545 43.5501 30.2636 45.8172 30.2636C47.9789 30.2636 50.3515 31.2126 51.8805 32.7944C53.6731 34.5343 54.6221 36.6959 54.6221 39.0685C54.6221 41.3884 53.5677 43.6555 51.8805 45.1845C50.3515 46.8717 48.0844 47.8735 45.8172 47.8735Z" fill="#FFA500"/>
<path fill-rule="evenodd" clip-rule="evenodd" d="M64.2706 42.8119C62.4253 42.8119 60.6854 42.0738 59.42 40.8084L59.2091 40.6503C57.9965 39.3849 57.2583 37.5395 57.2583 35.7469C57.2583 34.0597 58.0492 32.2671 59.42 30.8436C60.7909 29.4727 62.5308 28.6819 64.2706 28.6819C66.116 28.6819 67.9086 29.4727 69.3322 30.8436C70.5975 32.1617 71.3357 33.9016 71.3357 35.7469C71.3357 37.7504 70.6503 39.4903 69.3322 40.8084C68.0141 42.1265 66.2742 42.8119 64.2706 42.8119Z" fill="#FFA500"/>
<path fill-rule="evenodd" clip-rule="evenodd" d="M27.1529 41.9157C25.2021 41.9157 23.2513 41.1248 21.8805 39.754C20.5624 38.3832 19.7188 36.4324 19.7188 34.5343C19.7188 32.689 20.5097 30.8963 21.8805 29.5255C23.0931 28.102 24.9912 27.3111 27.1529 27.3111C29.2619 27.3111 31.1599 28.102 32.3726 29.5255C33.7434 30.8963 34.5343 32.689 34.5343 34.5343C34.5343 36.4851 33.7434 38.3304 32.3726 39.754C31.0018 41.1248 29.051 41.9157 27.1529 41.9157Z" fill="#FFA500"/>
<path fill-rule="evenodd" clip-rule="evenodd" d="M51.6169 64.1125C50.246 64.1125 49.1916 63.6379 48.1898 62.6889C47.2408 61.898 46.6608 60.6854 46.6608 59.3673C46.6608 57.9437 47.4517 56.7838 48.0316 56.0457C48.0844 55.9402 48.1898 55.8348 48.2953 55.7293C49.0861 55.1494 50.0352 54.5694 51.6169 54.5694C52.8295 54.5694 54.0949 55.0439 54.8858 55.8875L55.0439 56.0457C55.6239 56.7838 56.362 57.9437 56.362 59.3673C56.362 60.949 55.3603 62.1617 54.9385 62.5835C54.2004 63.5325 52.935 64.1125 51.6169 64.1125Z" fill="#FFA500"/>
<path fill-rule="evenodd" clip-rule="evenodd" d="M45.0791 21.9859C44.3937 21.9859 43.8664 21.4587 43.8664 20.7733V1.21265C43.8664 0.527241 44.3937 0 45.0791 0C45.7645 0 46.3445 0.527241 46.3445 1.21265V20.7733C46.3445 21.4587 45.7645 21.9859 45.0791 21.9859Z" fill="#FFA500"/>
<path fill-rule="evenodd" clip-rule="evenodd" d="M45.0791 21.9859C44.7627 21.9859 44.3937 21.8805 44.1828 21.6168L38.0141 15.1318C37.5395 14.6045 37.5923 13.8664 38.0668 13.3392C38.594 12.8646 39.3322 12.9174 39.8067 13.3919L45.0791 18.9806L50.1406 13.3919C50.6151 12.9174 51.406 12.8646 51.8805 13.3392C52.4077 13.8137 52.4077 14.6045 51.9859 15.0791L45.9754 21.6168C45.7645 21.8805 45.4482 21.9859 45.0791 21.9859Z" fill="#FFA500"/>
<path fill-rule="evenodd" clip-rule="evenodd" d="M66.7487 26.0457C66.0633 26.0457 65.536 25.5185 65.536 24.8331V9.49036C65.536 8.80495 66.0633 8.27771 66.7487 8.27771C67.4341 8.27771 67.9613 8.80495 67.9613 9.49036V24.8331C67.9613 25.5185 67.4341 26.0457 66.7487 26.0457Z" fill="#FFA500"/>
<path fill-rule="evenodd" clip-rule="evenodd" d="M66.7487 26.0457C66.3796 26.0457 66.0633 25.9402 65.8524 25.6766L61.0545 20.3515C60.6327 19.877 60.6327 19.0861 61.1599 18.6116C61.6872 18.1898 62.4253 18.1898 62.8998 18.717L66.7487 22.9877L70.5975 18.717C71.0193 18.1898 71.8102 18.1898 72.3374 18.6116C72.8647 19.0861 72.8647 19.877 72.4429 20.3515L67.645 25.6766C67.4341 25.9402 67.1178 26.0457 66.7487 26.0457Z" fill="#FFA500"/>
<path fill-rule="evenodd" clip-rule="evenodd" d="M23.4095 26.0457C22.7241 26.0457 22.1968 25.5185 22.1968 24.8331V9.49036C22.1968 8.80495 22.7241 8.27771 23.4095 8.27771C24.0949 8.27771 24.6749 8.80495 24.6749 9.49036V24.8331C24.6749 25.5185 24.0949 26.0457 23.4095 26.0457Z" fill="#FFA500"/>
<path fill-rule="evenodd" clip-rule="evenodd" d="M23.4095 26.0457C23.0931 26.0457 22.7241 25.9402 22.5132 25.6766L17.768 20.3515C17.2935 19.877 17.3462 19.0861 17.8735 18.6116C18.348 18.1898 19.1388 18.1898 19.6134 18.717L23.4095 22.9877L27.2583 18.717C27.7329 18.1898 28.5237 18.1898 28.9982 18.6116C29.5255 19.0861 29.5782 19.877 29.1037 20.3515L24.3585 25.6766C24.0949 25.9402 23.7786 26.0457 23.4095 26.0457Z" fill="#FFA500"/>
</g>
<defs>
<clipPath id="clip0_10_424">
<rect width="90" height="90" fill="white"/>
</clipPath>
</defs>
</svg>
