<svg width="90" height="90" viewBox="0 0 90 90" fill="none" xmlns="http://www.w3.org/2000/svg">
<path fill-rule="evenodd" clip-rule="evenodd" d="M58.0498 24.0848V33.5712C58.5285 33.2696 59.065 32.6765 59.4867 32.2548C61.2046 30.5369 64.0027 30.5367 65.7206 32.2546L66.1574 32.6914V24.0847H68.4636C69.2365 24.0847 69.6684 23.197 69.1915 22.5888L63.5593 15.4079C62.8188 14.4638 61.3883 14.4638 60.6477 15.4079L55.0157 22.5888C54.5386 23.197 54.9705 24.0847 55.7436 24.0847H58.0498V24.0848ZM63.8564 34.1191L69.0485 39.3114C69.7373 40.0002 69.7373 41.1275 69.0485 41.8166L68.2202 42.6449C64.4971 46.3679 67.1303 52.725 72.3955 52.725H73.5669C74.5413 52.725 75.3383 53.5222 75.3383 54.4964V61.8391C75.3383 62.8135 74.5413 63.6106 73.5669 63.6106H72.3955C67.1303 63.6106 64.4971 69.9676 68.2202 73.6908L69.0485 74.5191C69.7373 75.208 69.7373 76.3353 69.0485 77.0243L63.8564 82.2164C63.1675 82.9053 62.0402 82.9053 61.3512 82.2164L60.5229 81.3881C56.7998 77.6649 50.4427 80.2983 50.4427 85.5634V86.7348C50.4427 87.7092 49.6455 88.5062 48.6714 88.5062H41.3286C40.3543 88.5062 39.5573 87.7092 39.5573 86.7348V85.5634C39.5573 80.2983 33.2003 77.6651 29.4771 81.3881L28.6488 82.2164C27.9599 82.9053 26.8327 82.9053 26.1436 82.2164L20.9515 77.0243C20.2627 76.3355 20.2627 75.2082 20.9515 74.5193L21.7798 73.691C25.5029 69.968 22.8697 63.6108 17.6045 63.6108H16.4331C15.4587 63.6108 14.6616 62.8137 14.6616 61.8393V54.4966C14.6616 53.5222 15.4587 52.7252 16.4331 52.7252H17.6045C22.8697 52.7252 25.5029 46.3681 21.7798 42.6451L20.9515 41.8168C20.2627 41.1279 20.2627 40.0006 20.9515 39.3117L26.1436 34.1195C26.8327 33.4306 27.9598 33.4306 28.6488 34.1197L29.4771 34.9479C33.2002 38.671 39.5573 36.0378 39.5573 30.7726V29.6012C39.5573 28.6268 40.3545 27.8299 41.3286 27.8299H48.6714C49.6457 27.8299 50.4427 28.6268 50.4427 29.6012V30.7726C50.4427 36.0378 56.7998 38.671 60.5229 34.9479L61.3512 34.1197C62.0402 33.4302 63.1675 33.4302 63.8564 34.1191ZM50.8711 66.044L49.3726 59.384L54.4997 54.8764L47.7028 54.2436L45.0002 47.9744L42.2979 54.2433L35.5003 54.8764L40.6273 59.3836L39.1287 66.044L44.9996 62.5609L50.8711 66.044ZM45 43.1743C36.7195 43.1743 30.0067 49.8871 30.0067 58.1676C30.0067 66.4481 36.7195 73.1609 45 73.1609C53.2805 73.1609 59.9933 66.4481 59.9933 58.1676C59.9933 49.8871 53.2805 43.1743 45 43.1743ZM40.9461 10.8791V25.2095H49.0539V10.8791H51.3601C52.133 10.8791 52.5649 9.9914 52.088 9.38319L46.4558 2.20235C45.7153 1.25823 44.2847 1.25823 43.5442 2.20235L37.9121 9.38319C37.4351 9.9914 37.867 10.8791 38.6401 10.8791H40.9461ZM31.9502 24.0848H34.2564C35.0293 24.0848 35.4612 23.1971 34.9843 22.5888L29.3523 15.4079C28.6117 14.4638 27.1812 14.4638 26.4407 15.4079L20.8086 22.5888C20.3316 23.197 20.7635 24.0848 21.5365 24.0848H23.8428V32.6914L24.2796 32.2546C25.9975 30.5365 28.7956 30.5367 30.5137 32.2546C30.9356 32.6765 31.4719 33.2692 31.9505 33.571V24.0848H31.9502Z" fill="#FFA500"/>
</svg>
